<?xml version="1.0" standalone="no"?>
<!DOCTYPE svg PUBLIC "-//W3C//DTD SVG 1.1//EN" "http://www.w3.org/Graphics/SVG/1.1/DTD/svg11.dtd" >
<svg xmlns="http://www.w3.org/2000/svg">
<metadata>Generated by IcoMoon</metadata>
<defs>
<font id="icomoon" horiz-adv-x="1024">
<font-face units-per-em="1024" ascent="960" descent="-64" />
<missing-glyph horiz-adv-x="1024" />
<glyph unicode="&#x20;" horiz-adv-x="512" d="" />
<glyph unicode="&#xe900;" glyph-name="lock" d="M73.143 594.286v-585.143h877.714v585.143h-877.714zM78.769 667.429h866.462c43.503 0 78.769-32.747 78.769-73.143v-585.143c0-40.396-35.266-73.143-78.769-73.143h-866.462c-43.503 0-78.769 32.747-78.769 73.143v585.143c0 40.396 35.266 73.143 78.769 73.143zM227.556 667.429h568.889v146.286c0 40.396-36.386 73.143-81.27 73.143h-406.349c-44.884 0-81.27-32.747-81.27-73.143v-146.286zM308.825 960h406.349c89.768 0 162.54-65.494 162.54-146.286v-219.429h-731.429v219.429c0 80.791 72.771 146.286 162.54 146.286zM512 448c40.396 0 73.143-32.747 73.143-73.143v-73.143c0-40.396-32.747-73.143-73.143-73.143s-73.143 32.747-73.143 73.143v73.143c0 40.396 32.747 73.143 73.143 73.143z" />
<glyph unicode="&#xe901;" glyph-name="oraganization" d="M992 0h-960c-12.8 0-25.6 6.411-32 19.234 0 12.823 6.4 25.646 19.2 32.057h972.8c12.8 0 25.6-6.411 32-19.234 0-12.823-6.4-25.646-19.2-32.057h-12.8zM992 653.968l-467.2 237.224c-6.4 6.411-12.8 6.411-19.2 0l-473.6-237.224c-6.4-6.411-12.8-12.823-12.8-19.234 0-12.823 12.8-25.646 25.6-25.646h57.6v-455.213h-44.8c-12.8 0-25.6-12.823-19.2-32.057 0-12.823 12.8-25.646 32-19.234h889.6c12.8 0 19.2 12.823 19.2 19.234 0 12.823-6.4 25.646-19.2 32.057h-51.2v448.801h64c12.8 0 19.2 6.411 25.6 12.823 12.8 12.823 6.4 32.057-6.4 38.469zM512 839.9l358.4-185.932h-716.8l358.4 185.932zM608 602.676v-455.213h-198.4v455.213h198.4zM153.6 602.676h198.4v-455.213h-198.4v455.213zM864 147.463h-204.8v455.213h204.8v-455.213z" />
<glyph unicode="&#xe902;" glyph-name="user_normal" horiz-adv-x="896" d="M550.077-64h-203.904c-193.418 0-346.173 0-346.173 100.422v20.077c0 188.19 155.312 341.272 346.173 341.272h203.904c190.861 0 346.173-153.083 346.173-341.272v-20.077c-0.037-100.422-160.463-100.422-346.173-100.422zM346.136 337.577c-157.687 0-285.999-126.057-285.999-281.041v-20.077c0-40.191 165.286-40.191 285.999-40.191h203.904c99.924 0 285.999 0 285.999 40.191v20.077c0 154.984-128.312 281.041-285.999 281.041h-203.904zM437.913 417.921c-151.549 0-274.783 121.596-274.783 271.058s123.234 271.021 274.783 271.021c151.549 0 274.783-121.559 274.783-271.021s-123.27-271.058-274.783-271.058zM223.304 688.979c0-116.22 96.271-210.827 214.609-210.827s214.609 94.57 214.609 210.827c0 116.256-96.271 210.79-214.609 210.79s-214.609-94.57-214.609-210.79z" />
<glyph unicode="&#xe903;" glyph-name="angle-double-right" d="M584.704 407.040c23.552 24.576 23.552 64.512 0 89.088l-437.248 448.512c-23.552 24.576-62.464 24.576-87.040 0-23.552-24.576-23.552-64.512 0-89.088l394.24-404.48-394.24-404.48c-23.552-24.576-23.552-64.512 0-89.088s62.464-24.576 87.040 0l437.248 449.536zM439.296 855.552l394.24-404.48-394.24-404.48c-23.552-24.576-23.552-64.512 0-89.088s62.464-24.576 87.040 0l437.248 449.536c23.552 24.576 23.552 64.512 0 89.088l-437.248 448.512c-23.552 24.576-62.464 24.576-87.040 0-23.552-24.576-23.552-64.512 0-89.088v0 0z" />
<glyph unicode="&#xe904;" glyph-name="arrow" d="M995.328 498.176l-924.672 459.776c-6.144 3.072-13.312 5.12-20.48 5.12h-8.192l-2.048-2.048c-4.096 0-8.192-2.048-11.264-3.072l-2.048-1.024c-3.072-2.048-6.144-4.096-8.192-6.144v0l-2.048-2.048h-1.024l-1.024-1.024v-1.024c0 0-1.024-1.024-1.024-1.024l-3.072-3.072v-1.024l-1.024-1.024c0-1.024-1.024-1.024-1.024-2.048v0c-3.072-4.096-5.12-8.192-6.144-12.288v0c-1.024-4.096-2.048-8.192-2.048-12.288v-11.264c1.024-6.144 3.072-11.264 5.12-16.384l3.072-4.096 273.408-431.104-273.408-430.080-2.048-4.096c-1.024-1.024-1.024-2.048-2.048-3.072v-1.024l-1.024-3.072-1.024-1.024-1.024-3.072v-1.024l-1.024-3.072v-1.024c0-1.024 0-2.048 0-3.072v-7.168c0-4.096 1.024-8.192 2.048-12.288v-1.024c0-1.024 1.024-2.048 1.024-4.096v-1.024c1.024-3.072 2.048-5.12 3.072-7.168v0c1.024-1.024 1.024-2.048 2.048-3.072l2.048-1.024 1.024-2.048 5.12-5.12c1.024 0 1.024 0 1.024-1.024 1.024-1.024 1.024-1.024 2.048-2.048l3.072-3.072h1.024l3.072-2.048c1.024-1.024 2.048-1.024 3.072-2.048v0c2.048-1.024 4.096-2.048 7.168-2.048 2.048-1.024 5.12-1.024 7.168-1.024v0h11.264l3.072 1.024h1.024c1.024 0 2.048 1.024 3.072 1.024h1.024c1.024 0 2.048 1.024 3.072 1.024h1.024c1.024 1.024 2.048 1.024 3.072 2.048l924.672 459.776c17.408 9.216 28.672 26.624 28.672 47.104 0 18.432-10.24 36.864-28.672 46.080v0z" />
<glyph unicode="&#xe905;" glyph-name="books" d="M796.672 15.872l129.024 20.48-112.64 707.584-202.752-31.744 110.592-696.32h-156.672v819.2h-204.8v-819.2h-52.224v921.6h-204.8v-921.6h-102.4v-52.224h1024v52.224h-227.328zM257.024 68.096h-102.4v819.2h102.4v-819.2zM512 68.096h-102.4v716.8h102.4v-716.8zM669.696 670.208l101.376 15.36 96.256-606.208-101.376-15.36-96.256 606.208z" />
<glyph unicode="&#xe906;" glyph-name="champion" d="M955.392 553.472c-37.888 0-68.608-30.72-68.608-68.608 0-5.12 1.024-10.24 2.048-15.36l-246.784-75.776-105.472 266.24c25.6 10.24 43.008 34.816 43.008 63.488 0 37.888-30.72 68.608-68.608 68.608s-68.608-30.72-68.608-68.608c0-28.672 18.432-53.248 43.008-63.488l-105.472-266.24-246.784 75.776c1.024 5.12 2.048 10.24 2.048 15.36 0 37.888-30.72 68.608-68.608 68.608s-66.56-30.72-66.56-68.608c0-37.888 30.72-68.608 68.608-68.608 7.168 0 13.312 1.024 19.456 3.072l131.072-229.376-2.048-1.024c80.896-50.176 183.296-79.872 293.888-79.872s212.992 29.696 293.888 79.872l-2.048 1.024 133.12 230.4c6.144-2.048 13.312-3.072 19.456-3.072 37.888 0 68.608 30.72 68.608 68.608 0 36.864-30.72 67.584-68.608 67.584z" />
<glyph unicode="&#xe907;" glyph-name="check-square" d="M823.296 963.072h-585.728c-79.872 0-146.432-65.536-146.432-146.432v-731.136c0-80.896 65.536-146.432 146.432-146.432h584.704c80.896 0 146.432 65.536 146.432 146.432v731.136c0 80.896-65.536 146.432-145.408 146.432zM745.472 566.784l-241.664-289.792c-7.168-7.168-15.36-11.264-25.6-13.312v0c-9.216-1.024-19.456 1.024-27.648 5.12l-125.952 101.376c-10.24 6.144-17.408 15.36-20.48 25.6-3.072 11.264-1.024 22.528 4.096 32.768 11.264 20.48 38.912 27.648 58.368 15.36l105.472-79.872 208.896 261.12c15.36 16.384 44.032 17.408 60.416 2.048 19.456-15.36 20.48-43.008 4.096-60.416z" />
<glyph unicode="&#xe908;" glyph-name="check" d="M998.4 798.208c-15.36 15.36-37.888 25.6-61.44 25.6s-46.080-9.216-61.44-25.6l-507.904-507.904-219.136 218.112c-15.36 15.36-37.888 25.6-61.44 25.6s-46.080-9.216-61.44-25.6c-16.384-16.384-25.6-37.888-25.6-61.44s9.216-46.080 25.6-61.44l280.576-280.576c15.36-15.36 37.888-25.6 61.44-25.6 28.672 0 54.272 13.312 69.632 34.816l561.152 561.152c33.792 32.768 33.792 89.088 0 122.88z" />
<glyph unicode="&#xe909;" glyph-name="chevron-down" d="M916.48 713.216l-404.48-394.24-404.48 394.24c-24.576 23.552-64.512 23.552-89.088 0s-24.576-62.464 0-87.040l449.536-437.248c24.576-23.552 64.512-23.552 89.088 0l448.512 437.248c24.576 23.552 24.576 62.464 0 87.040-24.576 23.552-64.512 23.552-89.088 0v0 0z" />
<glyph unicode="&#xe90a;" glyph-name="chevron-right" d="M337.92 942.592c-25.6 26.624-68.608 26.624-95.232 0-26.624-25.6-26.624-68.608 0-95.232l396.288-392.192-398.336-399.36c-26.624-26.624-26.624-69.632 0-97.28 12.288-14.336 30.72-19.456 48.128-19.456s33.792 5.12 48.128 19.456l444.416 448.512c14.336 12.288 19.456 30.72 19.456 47.104 0 19.456-5.12 33.792-19.456 48.128l-443.392 440.32z" />
<glyph unicode="&#xe90b;" glyph-name="close" d="M1002.496 49.664l-393.216 393.216 393.216 393.216c27.648 27.648 27.648 71.68 0 98.304-27.648 27.648-70.656 27.648-98.304 0l-393.216-393.216-394.24 393.216c-27.648 27.648-70.656 27.648-98.304 0s-27.648-70.656 0-98.304l393.216-393.216-393.216-393.216c-27.648-27.648-27.648-70.656 0-98.304 26.624-27.648 70.656-27.648 98.304 0l393.216 393.216 393.216-393.216c27.648-26.624 71.68-26.624 98.304 0 27.648 26.624 27.648 70.656 1.024 98.304v0z" />
<glyph unicode="&#xe90c;" glyph-name="computer" d="M959.488 899.584h-894.976c-35.84 0-64.512-28.672-64.512-64.512v-576.512c0-34.816 28.672-63.488 64.512-63.488h384v-128h-96.256c-17.408 0-31.744-14.336-31.744-31.744s14.336-31.744 31.744-31.744h320.512c17.408 0 31.744 14.336 31.744 31.744s-14.336 31.744-31.744 31.744h-95.232v128h384c35.84 0 64.512 28.672 64.512 64.512v575.488c-2.048 35.84-30.72 64.512-66.56 64.512v0 0zM959.488 354.816c0-17.408-14.336-31.744-31.744-31.744h-831.488c-17.408 0-31.744 14.336-31.744 31.744v448.512c0 17.408 14.336 31.744 31.744 31.744h831.488c17.408 0 31.744-14.336 31.744-31.744v-448.512z" />
<glyph unicode="&#xe90d;" glyph-name="delete" d="M395.264 78.336c25.6 0 46.080 20.48 46.080 46.080v559.104c0 25.6-20.48 46.080-46.080 46.080s-46.080-20.48-46.080-46.080v-558.080c0-25.6 20.48-47.104 46.080-47.104v0zM977.92 869.888h-396.288v47.104c0 25.6-20.48 46.080-46.080 46.080h-46.080c-25.6 0-46.080-20.48-46.080-46.080v-46.080h-397.312c-25.6-1.024-46.080-21.504-46.080-47.104s20.48-46.080 46.080-46.080h69.632v-744.448c0-51.2 41.984-93.184 93.184-93.184h605.184c51.2 0 93.184 41.984 93.184 93.184v743.424h69.632c25.6 0 46.080 20.48 46.080 46.080s-19.456 47.104-45.056 47.104v0zM814.080 78.336c0-25.6-20.48-46.080-46.080-46.080h-512c-25.6 0-46.080 20.48-46.080 46.080v698.368h605.184v-698.368h-1.024zM628.736 78.336c25.6 0 46.080 20.48 46.080 46.080v559.104c0 25.6-20.48 46.080-46.080 46.080s-46.080-20.48-46.080-46.080v-558.080c-1.024-25.6 20.48-47.104 46.080-47.104v0z" />
<glyph unicode="&#xe90e;" glyph-name="edit" d="M319.488 397.824c-1.024-1.024-1.024-2.048-2.048-3.072l-51.2-188.416c-3.072-11.264 0-22.528 8.192-30.72 6.144-6.144 14.336-9.216 22.528-9.216 3.072 0 6.144 0 8.192 1.024l187.392 51.2c0 0 0 0 1.024 0 2.048 0 4.096 1.024 6.144 2.048l501.76 501.76c15.36 15.36 23.552 34.816 23.552 57.344 0 24.576-10.24 50.176-29.696 68.608l-47.104 47.104c-18.432 18.432-44.032 29.696-68.608 29.696-22.528 0-41.984-8.192-57.344-23.552l-501.76-501.76c-1.024-1.024-1.024-2.048-1.024-2.048v0zM952.32 770.56l-50.176-50.176-80.896 81.92 49.152 49.152c8.192 8.192 22.528 7.168 31.744-2.048l47.104-47.104c5.12-5.12 8.192-11.264 8.192-18.432 0-5.12-2.048-10.24-5.12-13.312v0zM408.576 389.632l361.472 361.472 80.896-81.92-361.472-360.448-80.896 80.896zM342.016 243.2l26.624 96.256 69.632-69.632-96.256-26.624zM984.064 571.904c-19.456 0-34.816-15.36-34.816-34.816v-467.968c0-24.576-19.456-44.032-44.032-44.032h-791.552c-24.576 0-44.032 19.456-44.032 44.032v763.904c0 24.576 20.48 44.032 44.032 44.032h508.928c19.456 0 34.816 15.36 34.816 34.816s-15.36 34.816-34.816 34.816h-514.048c-59.392 0-108.544-49.152-108.544-108.544v-773.12c0-59.392 49.152-108.544 108.544-108.544h801.792c59.392 0 108.544 48.128 108.544 108.544v472.064c-1.024 19.456-16.384 34.816-34.816 34.816v0z" />
<glyph unicode="&#xe90f;" glyph-name="exclamation" d="M512 109.056v0c-33.792 0-61.44-27.648-61.44-61.44s27.648-61.44 61.44-61.44c33.792 0 61.44 27.648 61.44 61.44 1.024 33.792-26.624 61.44-61.44 61.44zM512 232.96c33.792 0 61.44 27.648 61.44 61.44v577.536c0 33.792-27.648 61.44-61.44 61.44s-61.44-27.648-61.44-61.44v-577.536c-1.024-33.792 26.624-61.44 61.44-61.44z" />
<glyph unicode="&#xe910;" glyph-name="feedback" d="M303.104 727.552h402.432c16.384 0 28.672 13.312 28.672 28.672 0 16.384-13.312 28.672-28.672 28.672h-402.432c-16.384 0-28.672-13.312-28.672-28.672-1.024-15.36 12.288-28.672 28.672-28.672v0zM303.104 567.808h286.72c16.384 0 28.672 13.312 28.672 28.672 0 16.384-13.312 28.672-28.672 28.672h-286.72c-16.384 0-28.672-13.312-28.672-28.672-1.024-16.384 12.288-28.672 28.672-28.672v0zM958.464 657.92l-72.704 41.984v217.088c0 16.384-13.312 29.696-29.696 29.696h-705.536c-16.384 0-29.696-13.312-29.696-29.696v-217.088l-72.704-41.984-57.344-28.672v-659.456c0-4.096 1.024-8.192 2.048-11.264 0 0 0-1.024 0-1.024 1.024-2.048 2.048-3.072 3.072-5.12 5.12-7.168 13.312-11.264 22.528-12.288 0 0 1.024 0 1.024 0h966.656c16.384 0 28.672 13.312 28.672 28.672v657.408l-56.32 31.744zM885.76 633.344l67.584-39.936-67.584-39.936v79.872zM198.656 888.32h610.304c14.336 0 18.432-4.096 18.432-18.432v-349.184l-323.584-188.416-324.608 188.416v349.184c0 14.336 5.12 18.432 19.456 18.432v0zM121.856 554.496l-67.584 39.936 67.584 39.936v-79.872zM958.464-1.536h-909.312v531.456l440.32-254.976c0 0 1.024 0 1.024-1.024 1.024 0 1.024-1.024 2.048-1.024s2.048-1.024 3.072-1.024c1.024 0 1.024 0 2.048 0s2.048 0 3.072 0h5.12c1.024 0 2.048 0 3.072 0s1.024 0 2.048 0 2.048 1.024 3.072 1.024c1.024 0 1.024 1.024 2.048 1.024 0 0 1.024 0 1.024 1.024l440.32 254.976 1.024-531.456z" />
<glyph unicode="&#xe911;" glyph-name="good" d="M1024 451.072c-2.048-436.224-72.704-512-512-512s-513.024 73.728-512 512c1.024 438.272 72.704 513.024 512 512s514.048-75.776 512-512v0zM369.664 200.192v399.36c16.384 24.576 32.768 65.536 48.128 123.904h-72.704c-15.36-83.968-51.2-144.384-107.52-180.224v-40.96c24.576 7.168 46.080 16.384 63.488 27.648v-328.704l68.608-1.024zM494.592 565.76c-2.048-124.928-34.816-228.352-100.352-311.296v-57.344c111.616 86.016 168.96 208.896 172.032 368.64h196.608v48.128h-194.56c0 10.24 0 21.504 0 31.744v77.824h-70.656v-109.568h-100.352v-48.128h97.28zM700.416 215.552c46.080-1.024 67.584 19.456 66.56 64.512v36.864h-50.176v-27.648c1.024-21.504-7.168-31.744-27.648-29.696h-18.432c-21.504-2.048-31.744 8.192-29.696 29.696v235.52h-68.608v-239.616c-2.048-47.104 22.528-69.632 72.704-68.608h55.296v-1.024zM703.488 631.296c-4.096 28.672-13.312 56.32-25.6 81.92h-59.392c12.288-33.792 19.456-61.44 20.48-81.92h64.512z" />
<glyph unicode="&#xe912;" glyph-name="time" d="M874.496 810.496c-96.256 96.256-226.304 150.528-362.496 149.504-136.192 0-265.216-53.248-362.496-149.504-96.256-96.256-149.504-226.304-149.504-362.496 0-137.216 53.248-265.216 149.504-362.496 96.256-96.256 226.304-150.528 362.496-149.504 136.192 0 266.24 53.248 362.496 150.528 199.68 198.656 199.68 524.288 0 723.968v0zM827.392 132.608c-83.968-82.944-197.632-130.048-315.392-130.048s-231.424 47.104-314.368 130.048c-83.968 83.968-131.072 197.632-131.072 315.392 0 118.784 46.080 231.424 130.048 315.392 83.968 82.944 197.632 130.048 315.392 130.048 118.784 0 230.4-46.080 315.392-130.048 173.056-174.080 173.056-456.704 0-630.784v0zM733.184 322.048l-177.152 102.4v279.552c-1.024 22.528-20.48 39.936-43.008 39.936s-40.96-17.408-43.008-39.936v-299.008c0-15.36 19.456-28.672 32.768-36.864 4.096-5.12 13.312-10.24 19.456-13.312l176.128-106.496c20.48-12.288 41.984-5.12 54.272 15.36s1.024 47.104-19.456 58.368v0zM733.184 322.048v0z" />
<glyph unicode="&#xe913;" glyph-name="head" d="M205.824 477.696c-3.072 0-5.12 0-6.144-1.024 2.048 0 4.096 1.024 6.144 1.024v0 0zM964.608 175.616c0 1.024 0 3.072 1.024 4.096-1.024-1.024-1.024-2.048-1.024-4.096v0zM1014.784 733.696c0 0 0 0 0 0v0c0 1.024 0 0 0 0v0zM964.608 733.696c0 0 0 0 0 0s0 1.024 0 0v0 0zM995.328-26.112c-7.168 53.248-22.528 104.448-46.080 152.576-5.12 9.216-9.216 18.432-14.336 27.648 0 0 0 0 0 0-22.528 37.888-50.176 73.728-81.92 104.448v0c-7.168 7.168-14.336 13.312-21.504 20.48-53.248 46.080-113.664 80.896-179.2 101.376 11.264 6.144 23.552 14.336 33.792 21.504 12.288 9.216 24.576 19.456 35.84 30.72 58.368 58.368 91.136 136.192 91.136 219.136s-32.768 160.768-91.136 219.136c-57.344 57.344-134.144 90.112-215.040 91.136-1.024 0-3.072 0-4.096 0s-3.072 0-4.096 0c-80.896-1.024-157.696-33.792-215.040-91.136-58.368-58.368-91.136-136.192-91.136-219.136s32.768-160.768 91.136-219.136c11.264-11.264 22.528-21.504 35.84-30.72 11.264-8.192 22.528-15.36 33.792-21.504-65.536-20.48-125.952-55.296-179.2-101.376-7.168-6.144-14.336-13.312-21.504-20.48-31.744-31.744-59.392-66.56-81.92-105.472-5.12-9.216-10.24-18.432-14.336-27.648-23.552-48.128-38.912-99.328-46.080-152.576-2.048-17.408 9.216-32.768 26.624-34.816 1.024 0 3.072 0 4.096 0s2.048 0 4.096 0c12.288 3.072 22.528 12.288 24.576 25.6 14.336 98.304 61.44 187.392 128 254.976 78.848 82.944 187.392 133.12 304.128 133.12h1.024c116.736 0 225.28-51.2 305.152-131.072 67.584-67.584 113.664-156.672 128-254.976 2.048-13.312 12.288-23.552 23.552-25.6 0 0 0 0 0 0 1.024 0 2.048 0 4.096 0 1.024 0 3.072 0 4.096 0 17.408 2.048 29.696 17.408 27.648 33.792v0zM501.76 403.968c-1.024 0-1.024 0-2.048 0-115.712 1.024-219.136 80.896-247.808 189.44 0 1.024-1.024 2.048-1.024 3.072-4.096 17.408-7.168 36.864-7.168 55.296s2.048 37.888 7.168 56.32c0 1.024 1.024 2.048 1.024 4.096 28.672 110.592 133.12 198.656 249.856 198.656h1.024c116.736 0 221.184-88.064 248.832-198.656 0-1.024 1.024-2.048 1.024-4.096 4.096-18.432 7.168-36.864 7.168-56.32s-2.048-36.864-7.168-54.272c0-1.024-1.024-2.048-1.024-3.072-28.672-107.52-131.072-188.416-247.808-189.44 0-1.024-1.024-1.024-2.048-1.024v0z" />
<glyph unicode="&#xe914;" glyph-name="heart" d="M777.216 924.16c-150.528 15.36-250.88-119.808-265.216-140.288-14.336 20.48-114.688 156.672-265.216 140.288-162.816-16.384-577.536-416.768 263.168-945.152 0-1.024 0-1.024 0-2.048 1.024 0 1.024 1.024 2.048 1.024s1.024-1.024 2.048-1.024c0 1.024 0 1.024 0 2.048 840.704 528.384 425.984 928.768 263.168 945.152v0z" />
<glyph unicode="&#xe915;" glyph-name="introduce" d="M802.816 960h-585.728c-80.896 0-146.432-65.536-146.432-146.432v-731.136c0-80.896 65.536-146.432 146.432-146.432h584.704c80.896 0 146.432 65.536 146.432 146.432v732.16c1.024 79.872-65.536 145.408-145.408 145.408v0zM253.952 814.592h219.136c21.504 0 36.864-14.336 36.864-36.864 0-21.504-14.336-36.864-36.864-36.864h-219.136c-21.504 0-36.864 14.336-36.864 36.864 0 21.504 15.36 36.864 36.864 36.864v0zM765.952 82.432h-512c-21.504 0-36.864 14.336-36.864 36.864 0 21.504 14.336 36.864 36.864 36.864h512c21.504 0 36.864-14.336 36.864-36.864 0-21.504-15.36-36.864-36.864-36.864v0 0zM765.952 302.592h-512c-21.504 0-36.864 14.336-36.864 36.864 0 21.504 14.336 36.864 36.864 36.864h512c21.504 0 36.864-14.336 36.864-36.864s-15.36-36.864-36.864-36.864v0 0zM765.952 521.728h-512c-21.504 0-36.864 14.336-36.864 36.864 0 21.504 14.336 36.864 36.864 36.864h512c21.504 0 36.864-14.336 36.864-36.864s-15.36-36.864-36.864-36.864v0 0z" />
<glyph unicode="&#xe916;" glyph-name="mobile" d="M775.168 843.264h-545.792v-705.536h545.792v705.536zM559.104 900.608c0 6.144-5.12 11.264-11.264 11.264h-113.664c-6.144 0-11.264-5.12-11.264-11.264v-11.264c0-6.144 5.12-11.264 11.264-11.264h113.664c6.144 0 11.264 5.12 11.264 11.264v11.264zM501.76 1.536c24.576 0 45.056 20.48 45.056 45.056s-20.48 45.056-45.056 45.056-45.056-20.48-45.056-45.056c0-24.576 20.48-45.056 45.056-45.056v0zM775.168-67.072h-545.792c-37.888 0-68.608 30.72-68.608 68.608v887.808c0 37.888 30.72 68.608 68.608 68.608h545.792c37.888 0 68.608-30.72 68.608-68.608v-887.808c0-37.888-30.72-68.608-68.608-68.608v0z" />
<glyph unicode="&#xe917;" glyph-name="notice" d="M66.56 254.464c-20.48 0-36.864 16.384-36.864 36.864v291.84c0 20.48 16.384 36.864 36.864 36.864h118.784l-21.504 36.864h-97.28c-39.936 0-72.704-32.768-72.704-72.704v-292.864c0-39.936 32.768-72.704 72.704-72.704h100.352l19.456 36.864h-119.808v-1.024zM479.232 802.304c5.12 3.072 8.192 3.072 9.216 3.072-1.024 0-1.024 0-1.024-3.072v-731.136c0-3.072 0-3.072 1.024-3.072-1.024 0-4.096 0-9.216 3.072l-291.84 178.176-19.456-30.72 290.816-178.176c31.744-18.432 64.512-5.12 64.512 30.72v731.136c0 35.84-32.768 49.152-64.512 30.72l-289.792-178.176 19.456-30.72 290.816 178.176zM703.488 221.696c60.416 55.296 95.232 132.096 95.232 215.040 0 83.968-35.84 162.816-97.28 218.112-7.168 7.168-19.456 6.144-25.6-1.024-7.168-7.168-6.144-19.456 1.024-25.6 53.248-48.128 84.992-116.736 84.992-190.464 0-72.704-30.72-140.288-82.944-188.416-7.168-7.168-8.192-18.432-1.024-25.6 7.168-8.192 18.432-9.216 25.6-2.048v0zM831.488 41.472c117.76 96.256 186.368 240.64 186.368 395.264 0 155.648-69.632 300.032-188.416 396.288-8.192 6.144-19.456 5.12-25.6-3.072s-5.12-19.456 3.072-25.6c109.568-90.112 175.104-223.232 175.104-368.64 0-144.384-64.512-277.504-173.056-366.592-8.192-6.144-9.216-18.432-2.048-25.6 5.12-7.168 16.384-8.192 24.576-2.048v0z" />
<glyph unicode="&#xe918;" glyph-name="organization" d="M881.664-16.896v435.2c0 24.576-19.456 44.032-44.032 44.032s-44.032-19.456-44.032-44.032v-390.144h-139.264v237.568c0 32.768-26.624 59.392-59.392 59.392h-165.888c-32.768 0-59.392-26.624-59.392-59.392v-237.568h-138.24v390.144c0 24.576-19.456 44.032-44.032 44.032s-44.032-19.456-44.032-44.032v-435.2c0-24.576 19.456-44.032 44.032-44.032h228.352c24.576 0 44.032 19.456 44.032 44.032v252.928h105.472v-252.928c0-24.576 19.456-44.032 44.032-44.032h228.352c24.576 0 44.032 19.456 44.032 44.032v0zM979.968 417.28c-11.264 0-22.528 4.096-30.72 12.288l-437.248 427.008-436.224-425.984c-17.408-17.408-46.080-16.384-62.464 1.024-17.408 17.408-16.384 46.080 1.024 62.464l466.944 456.704c17.408 16.384 45.056 16.384 62.464 0l467.968-456.704c17.408-17.408 18.432-45.056 1.024-62.464-10.24-9.216-21.504-14.336-32.768-14.336v0z" />
<glyph unicode="&#xe919;" glyph-name="password" d="M477.184 239.104v-88.064c0-18.432 15.36-34.816 34.816-34.816s34.816 15.36 34.816 34.816v88.064c27.648 13.312 46.080 39.936 46.080 71.68 0 44.032-35.84 79.872-80.896 79.872s-80.896-35.84-80.896-79.872c0-30.72 18.432-58.368 46.080-71.68v0zM889.856 572.928h-620.544c2.048 5.12 3.072 10.24 3.072 16.384v47.104c0 130.048 107.52 236.544 239.616 236.544s239.616-106.496 239.616-236.544c0-24.576 20.48-45.056 46.080-45.056s46.080 20.48 46.080 45.056c-1.024 180.224-149.504 326.656-331.776 326.656s-330.752-146.432-330.752-326.656v-47.104c0-6.144 1.024-11.264 3.072-16.384h-50.176c-37.888 0-68.608-29.696-68.608-65.536v-501.76c0-36.864 30.72-65.536 68.608-65.536h755.712c37.888 0 68.608 29.696 68.608 65.536v501.76c0 35.84-30.72 65.536-68.608 65.536v0zM867.328 29.184h-710.656v452.608h709.632v-452.608z" />
<glyph unicode="&#xe91a;" glyph-name="pencil" d="M148.48 57.856c2.048 0 3.072 0 5.12 1.024l258.048 63.488c0 0 0 0 0 0s1.024 0 1.024 0c0 0 1.024 0 1.024 0s1.024 0 1.024 0c0 0 1.024 0 1.024 0s1.024 0 1.024 0c0 0 1.024 0 1.024 1.024 0 0 0 0 1.024 0 0 0 1.024 0 1.024 1.024 0 0 0 0 1.024 1.024 0 0 1.024 1.024 1.024 1.024s0 0 0 0l574.464 575.488c18.432 18.432 28.672 44.032 28.672 70.656s-10.24 52.224-29.696 70.656l-81.92 81.92c-38.912 38.912-102.4 38.912-141.312 0l-47.104-48.128-527.36-527.36c0 0-1.024-1.024-1.024-1.024s0 0 0 0-1.024-1.024-1.024-1.024c0 0 0 0 0 0s-1.024-1.024-1.024-1.024c0 0 0 0 0 0s0-1.024-1.024-1.024c0 0 0 0 0 0 0-1.024 0-1.024-1.024-2.048 0 0 0 0 0 0s0-1.024 0-1.024l-63.488-260.096c-2.048-7.168 0-14.336 5.12-19.456 4.096-3.072 9.216-5.12 14.336-5.12v0zM309.248 404.992l429.056 430.080 165.888-165.888-497.664-499.712-165.888 166.912 68.608 68.608zM799.744 896.512c23.552 23.552 61.44 23.552 83.968 0l81.92-81.92c11.264-11.264 17.408-26.624 17.408-41.984 0-16.384-6.144-30.72-17.408-41.984l-32.768-33.792-165.888 166.912 32.768 32.768zM223.232 296.448l144.384-143.36-190.464-47.104 46.080 190.464zM993.28-11.776h-972.8c-11.264 0-20.48-9.216-20.48-20.48s9.216-20.48 20.48-20.48h972.8c11.264 0 20.48 9.216 20.48 20.48s-9.216 20.48-20.48 20.48v0z" />
<glyph unicode="&#xe91b;" glyph-name="play" d="M153.6-60.928c-8.192 0-16.384 2.048-24.576 6.144-16.384 9.216-26.624 26.624-26.624 45.056v921.6c0 18.432 10.24 35.84 26.624 45.056s36.864 8.192 52.224-2.048l716.8-460.8c14.336-9.216 23.552-25.6 23.552-43.008s-9.216-33.792-23.552-43.008l-716.8-460.8c-8.192-5.12-18.432-8.192-27.648-8.192v0z" />
<glyph unicode="&#xe91c;" glyph-name="plus" d="M972.8 502.272h-409.6v409.6c0 28.672-22.528 51.2-51.2 51.2s-51.2-22.528-51.2-51.2v-409.6h-409.6c-28.672 0-51.2-22.528-51.2-51.2s22.528-51.2 51.2-51.2h409.6v-409.6c0-28.672 22.528-51.2 51.2-51.2s51.2 22.528 51.2 51.2v409.6h409.6c28.672 0 51.2 22.528 51.2 51.2s-22.528 51.2-51.2 51.2v0 0z" />
<glyph unicode="&#xe91d;" glyph-name="qrcode" d="M548.864 11.776h72.704v-72.704h-72.704v72.704zM402.432 560.64v402.432h-402.432v-402.432h72.704v-72.704h72.704v72.704h257.024zM72.704 634.368v256h256v-256h-256zM146.432 816.64h109.568v-109.568h-109.568v109.568zM621.568 963.072v-402.432h402.432v402.432h-402.432zM951.296 634.368h-256v256h256v-256zM768 816.64h109.568v-109.568h-109.568v109.568zM146.432 195.072h109.568v-109.568h-109.568v109.568zM0 487.936h72.704v-72.704h-72.704v72.704zM146.432 487.936h72.704v-72.704h-72.704v72.704zM219.136 341.504h-219.136v-402.432h402.432v402.432h-109.568v72.704h-72.704v-72.704h-1.024zM328.704 267.776v-256h-256v256h256zM475.136 926.208h72.704v-109.568h-72.704v109.568zM475.136 743.936h72.704v-72.704h-72.704v72.704zM695.296 487.936h-145.408v109.568h-72.704v-109.568h-111.616v-72.704h256v-72.704h72.704v145.408zM695.296 341.504h72.704v-72.704h-72.704v72.704zM475.136 341.504h72.704v-109.568h-72.704v109.568zM475.136 158.208h72.704v-146.432h-72.704v146.432zM621.568 231.936h72.704v-219.136h-72.704v219.136zM840.704 341.504h183.296v-72.704h-183.296v72.704zM951.296 487.936h72.704v-72.704h-72.704v72.704zM768 487.936h109.568v-72.704h-109.568v72.704zM768 231.936h72.704v-72.704h-72.704v72.704zM951.296 158.208h-73.728v-72.704h110.592v72.704h36.864v72.704h-72.704v-72.704zM768 85.504h72.704v-72.704h-72.704v72.704zM840.704 11.776h183.296v-72.704h-183.296v72.704zM840.704 11.776v0z" />
<glyph unicode="&#xe91e;" glyph-name="read" d="M375.808 484.864h-204.8c-20.48 0-33.792-13.312-33.792-33.792s13.312-33.792 33.792-33.792h204.8c20.48 0 33.792 13.312 33.792 33.792s-13.312 33.792-33.792 33.792v0zM307.2 314.88h-136.192c-20.48 0-33.792-13.312-33.792-33.792s13.312-33.792 33.792-33.792h136.192c20.48 0 33.792 13.312 33.792 33.792 0 19.456-13.312 33.792-33.792 33.792v0zM375.808 655.872h-204.8c-20.48 0-33.792-13.312-33.792-33.792s13.312-33.792 33.792-33.792h204.8c20.48 0 33.792 13.312 33.792 33.792s-13.312 33.792-33.792 33.792v0zM852.992 655.872h-102.4c-20.48 0-33.792-13.312-33.792-33.792s13.312-33.792 33.792-33.792h102.4c20.48 0 33.792 13.312 33.792 33.792s-13.312 33.792-33.792 33.792v0zM955.392 826.88h-340.992c-40.96 0-78.848-17.408-102.4-48.128-23.552 30.72-61.44 48.128-102.4 48.128h-340.992c-37.888 0-68.608-30.72-68.608-68.608v-614.4c0-37.888 30.72-68.608 68.608-68.608h340.992c40.96 0 78.848 17.408 102.4 48.128 23.552-27.648 61.44-48.128 102.4-48.128h340.992c37.888 0 68.608 30.72 68.608 68.608v614.4c0 37.888-30.72 68.608-68.608 68.608v0zM478.208 212.48c0-37.888-30.72-68.608-68.608-68.608h-307.2c-20.48 0-33.792 13.312-33.792 33.792v546.816c0 20.48 13.312 33.792 33.792 33.792h307.2c37.888 0 68.608-30.72 68.608-68.608v-477.184zM955.392 177.664c0-20.48-13.312-33.792-33.792-33.792h-307.2c-37.888 0-68.608 30.72-68.608 68.608v477.184c0 37.888 30.72 68.608 68.608 68.608h307.2c20.48 0 33.792-13.312 33.792-33.792v-546.816zM852.992 484.864h-204.8c-20.48 0-33.792-13.312-33.792-33.792s13.312-33.792 33.792-33.792h204.8c20.48 0 33.792 13.312 33.792 33.792 1.024 20.48-13.312 33.792-33.792 33.792v0z" />
<glyph unicode="&#xe91f;" glyph-name="search" d="M712.704 742.912c-139.264 139.264-364.544 139.264-503.808 0-138.24-138.24-138.24-363.52 0-502.784 67.584-66.56 157.696-103.424 251.904-103.424s184.32 37.888 251.904 104.448c66.56 66.56 104.448 156.672 104.448 251.904-1.024 93.184-37.888 183.296-104.448 249.856v0zM132.096 163.328c-133.12 133.12-173.056 332.8-101.376 506.88s241.664 286.72 430.080 286.72 357.376-113.664 430.080-286.72c71.68-174.080 31.744-373.76-101.376-506.88-181.248-182.272-476.16-182.272-657.408 0v0zM1000.448-48.64c-12.288-12.288-27.648-18.432-45.056-18.432-16.384 0-32.768 7.168-45.056 18.432l-89.088 90.112c-24.576 24.576-24.576 64.512 0 90.112 24.576 24.576 64.512 24.576 90.112 0l90.112-90.112c12.288-12.288 18.432-27.648 18.432-45.056 0-16.384-7.168-32.768-19.456-45.056v0z" />
<glyph unicode="&#xe920;" glyph-name="shop" d="M915.456 731.648h-114.688c-52.224 134.144-161.792 231.424-288.768 231.424s-239.616-97.28-291.84-231.424h-111.616c-29.696 0-52.224-22.528-52.224-52.224v-688.128c0-29.696 22.528-52.224 52.224-52.224h806.912c29.696 0 52.224 15.36 52.224 45.056v687.104c0 30.72-22.528 60.416-52.224 60.416v0zM332.8 813.568c52.224 59.392 111.616 97.28 179.2 97.28s126.976-29.696 179.2-90.112c22.528-29.696 34.816-59.392 50.176-90.112h-460.8c14.336 30.72 29.696 60.416 52.224 82.944v0zM115.712 0.512v670.72h90.112c0-7.168-7.168-22.528-7.168-29.696-15.36-7.168-29.696-29.696-29.696-52.224 0-36.864 29.696-59.392 59.392-59.392 36.864 0 59.392 29.696 59.392 59.392 0 22.528-15.36 45.056-36.864 52.224 0 7.168 2.048 19.456 7.168 29.696h500.736c2.048-7.168 7.168-22.528 7.168-30.72v0c-22.528-7.168-29.696-29.696-29.696-52.224 0-36.864 29.696-59.392 59.392-59.392 36.864 0 61.44 29.696 59.392 59.392-2.048 28.672-11.264 48.128-36.864 52.224 0 7.168-4.096 20.48-5.12 29.696h93.184v-669.696h-790.528zM525.312 516.608l48.128-98.304c2.048-4.096 6.144-7.168 11.264-8.192l108.544-15.36c11.264-2.048 16.384-16.384 8.192-24.576l-78.848-76.8c-3.072-3.072-5.12-8.192-4.096-12.288l18.432-107.52c2.048-11.264-10.24-20.48-20.48-15.36l-97.28 51.2c-4.096 2.048-9.216 2.048-13.312 0l-97.28-51.2c-10.24-5.12-22.528 3.072-20.48 15.36l18.432 107.52c1.024 5.12-1.024 9.216-4.096 12.288l-78.848 76.8c-8.192 8.192-4.096 22.528 8.192 24.576l108.544 16.384c5.12 1.024 9.216 4.096 11.264 8.192l48.128 98.304c5.12 10.24 19.456 10.24 25.6-1.024z" />
<glyph unicode="&#xe921;" glyph-name="sign-check" d="M761.856 816.64c8.192 2.048 17.408 8.192 19.456 15.36 4.096 10.24 2.048 144.384-1.024 151.552-4.096 8.192-17.408 12.288-29.696 13.312-11.264-5.12-21.504-6.144-25.6-17.408-3.072-10.24 0-146.432 2.048-150.528 5.12-8.192 19.456-16.384 34.816-12.288v0zM1022.976 697.856c0 62.464 8.192 143.36-17.408 180.224-34.816 49.152-105.472 47.104-190.464 46.080 1.024-65.536 5.12-142.336-71.68-126.976-53.248 10.24-48.128 62.464-47.104 126.976h-366.592c1.024-64.512 6.144-115.712-47.104-126.976-15.36-3.072-30.72 2.048-39.936 6.144-37.888 18.432-32.768 63.488-31.744 120.832-81.92 0-152.576 4.096-187.392-41.984-33.792-43.008-20.48-151.552-20.48-226.304v-610.304c0-23.552-2.048-51.2 4.096-68.608 31.744-83.968 123.904-70.656 236.544-70.656h678.912c44.032 7.168 77.824 28.672 93.184 64.512 10.24 23.552 6.144 65.536 6.144 98.304v628.736h1.024zM945.152 8.704c-17.408-29.696-143.36-18.432-193.536-18.432h-481.28c-44.032 0-156.672-9.216-181.248 9.216-20.48 15.36-12.288 121.856-12.288 160.768v477.184h871.424v-452.608c0-32.768 6.144-158.72-3.072-176.128v0zM741.376 527.872c-34.816-18.432-57.344-52.224-80.896-81.92-63.488-73.728-128-146.432-191.488-220.16-40.96 47.104-81.92 94.208-122.88 141.312-13.312 16.384-41.984 28.672-60.416 7.168-11.264-12.288-15.36-41.984-4.096-58.368 43.008-50.176 87.040-99.328 130.048-149.504 12.288-15.36 27.648-43.008 49.152-48.128 30.72-7.168 71.68 54.272 83.968 71.68 76.8 87.040 152.576 175.104 229.376 262.144 22.528 30.72 7.168 75.776-32.768 75.776v0zM277.504 816.64c8.192 2.048 17.408 8.192 19.456 15.36 4.096 10.24 2.048 144.384-1.024 151.552-4.096 8.192-17.408 12.288-29.696 13.312-11.264-5.12-21.504-6.144-25.6-17.408-3.072-10.24 0-146.432 2.048-150.528 5.12-8.192 19.456-16.384 34.816-12.288v0z" />
<glyph unicode="&#xe922;" glyph-name="sign" d="M514.048 453.12c291.84 0 512 94.208 512 219.136s-220.16 219.136-512 219.136c-291.84 0-512-94.208-512-219.136s220.16-219.136 512-219.136v0zM514.048 836.096c269.312 0 456.704-86.016 456.704-163.84s-187.392-163.84-456.704-163.84c-269.312 0-456.704 86.016-456.704 163.84s188.416 163.84 456.704 163.84v0zM514.048 220.672c290.816 0 510.976 93.184 510.976 218.112 0 32.768-15.36 63.488-44.032 91.136 0 0 0 0 0 1.024 0 0 0 0-1.024 1.024v0c-4.096 4.096-10.24 7.168-17.408 7.168-14.336 0-25.6-11.264-25.6-25.6 0-7.168 3.072-14.336 8.192-18.432v0c16.384-17.408 26.624-37.888 26.624-54.272 0-77.824-188.416-164.864-457.728-164.864-270.336 0-457.728 87.040-457.728 164.864 0 19.456 5.12 35.84 26.624 55.296 0 0 1.024 0 1.024 1.024 0 0 0 0 0 0v0c4.096 4.096 7.168 10.24 7.168 17.408 0 14.336-11.264 25.6-25.6 25.6-7.168 0-13.312-3.072-17.408-7.168v0c-28.672-30.72-44.032-61.44-44.032-94.208 0-123.904 219.136-218.112 509.952-218.112v0zM980.992 298.496c0 1.024 0 1.024 0 0v0c-5.12 4.096-11.264 7.168-17.408 7.168-14.336 0-25.6-11.264-25.6-25.6 0-7.168 3.072-14.336 8.192-18.432v0c16.384-17.408 26.624-37.888 26.624-54.272 0-77.824-188.416-164.864-457.728-164.864-270.336 0-457.728 87.040-457.728 164.864 0 19.456 5.12 35.84 26.624 55.296 0 0 1.024 0 1.024 1.024 0 0 0 0 0 0v0c4.096 4.096 7.168 10.24 7.168 17.408 0 14.336-11.264 25.6-25.6 25.6-7.168 0-13.312-3.072-17.408-7.168v0c-28.672-27.648-44.032-58.368-44.032-91.136-1.024-124.928 218.112-218.112 509.952-218.112 290.816 0 510.976 93.184 510.976 218.112-1.024 31.744-16.384 62.464-45.056 90.112 0 0 0 0 0 0v0z" />
<glyph unicode="&#xe923;" glyph-name="space" d="M988.16 195.072v502.784c0 1.024 0 1.024 0 2.048s0 3.072 0 4.096c0 13.312-7.168 24.576-18.432 30.72l-438.272 218.112c-9.216 4.096-19.456 4.096-28.672 0l-443.392-218.112c-6.144-3.072-12.288-9.216-15.36-15.36-5.12-6.144-8.192-13.312-8.192-21.504v-506.88c0-14.336 9.216-26.624 21.504-31.744 2.048-2.048 4.096-4.096 7.168-5.12l437.248-218.112c4.096-2.048 9.216-3.072 14.336-3.072s10.24 1.024 14.336 3.072l438.272 218.112c13.312 7.168 20.48 21.504 18.432 35.84 0 1.024 1.024 3.072 1.024 5.12zM102.4 650.752l375.808-185.344 5.12-444.416-380.928 190.464v439.296zM545.792 461.312l375.808 187.392v-442.368l-371.712-185.344-4.096 440.32zM517.12 883.2l361.472-180.224-361.472-180.224-366.592 180.224 366.592 180.224z" />
<glyph unicode="&#xe924;" glyph-name="star" d="M473.088 928.256c21.504 46.080 57.344 46.080 78.848 0l93.184-197.632c21.504-46.080 79.872-89.088 130.048-97.28l201.728-30.72c50.176-7.168 62.464-43.008 26.624-79.872l-149.504-151.552c-35.84-35.84-57.344-106.496-49.152-156.672l35.84-219.136c8.192-50.176-21.504-70.656-65.536-46.080l-182.272 100.352c-44.032 24.576-116.736 24.576-161.792 0l-182.272-100.352c-44.032-24.576-73.728-4.096-65.536 46.080l35.84 219.136c8.192 50.176-14.336 119.808-49.152 156.672l-149.504 152.576c-35.84 35.84-23.552 71.68 26.624 79.872l201.728 30.72c50.176 7.168 108.544 51.2 130.048 97.28l94.208 196.608z" />
<glyph unicode="&#xe925;" glyph-name="thumbs-up" d="M939.008 552.448h-272.384c105.472 391.168-72.704 410.624-72.704 410.624-75.776 0-60.416-59.392-65.536-69.632 0-190.464-202.752-339.968-202.752-339.968v-541.696c0-53.248 72.704-72.704 101.376-72.704h409.6c38.912 0 69.632 101.376 69.632 101.376 101.376 345.088 101.376 447.488 101.376 447.488 0 70.656-68.608 64.512-68.608 64.512v0zM939.008 552.448v0zM214.016 552.448h-163.84c-33.792 0-33.792-32.768-33.792-32.768l33.792-545.792c0-34.816 34.816-34.816 34.816-34.816h141.312c29.696 0 28.672 22.528 28.672 22.528v549.888c0 41.984-40.96 40.96-40.96 40.96v0zM214.016 552.448v0z" />
<glyph unicode="&#xe926;" glyph-name="upload" d="M1001.472 305.664v-310.272c0-31.744-25.6-57.344-57.344-57.344h-864.256c-31.744 0-57.344 25.6-57.344 57.344v310.272c0 31.744 25.6 57.344 57.344 57.344s57.344-25.6 57.344-57.344v-252.928h750.592v252.928c0 31.744 25.6 57.344 57.344 57.344s56.32-25.6 56.32-57.344v0zM325.632 634.368l129.024 132.096v-492.544c0-31.744 25.6-57.344 57.344-57.344s57.344 25.6 57.344 57.344v492.544l129.024-132.096c11.264-11.264 25.6-17.408 40.96-17.408 14.336 0 28.672 5.12 39.936 16.384 22.528 21.504 22.528 58.368 1.024 80.896l-227.328 231.424c-10.24 11.264-25.6 17.408-40.96 17.408s-29.696-6.144-40.96-17.408l-226.304-231.424c-21.504-22.528-21.504-58.368 1.024-80.896 21.504-21.504 58.368-21.504 79.872 1.024v0z" />
<glyph unicode="&#xe927;" glyph-name="user" d="M742.4 399.872c35.84 58.368 58.368 132.096 58.368 210.944-1.024 194.56-130.048 352.256-288.768 352.256s-287.744-157.696-287.744-352.256c0-78.848 21.504-152.576 58.368-210.944-149.504-70.656-250.88-206.848-250.88-364.544v-31.744c0-35.84 28.672-64.512 63.488-64.512h832.512c35.84 0 63.488 28.672 63.488 64.512v31.744c1.024 157.696-100.352 293.888-248.832 364.544v0zM512 866.816c104.448 0 191.488-116.736 191.488-256s-88.064-256-191.488-256c-104.448 0-192.512 116.736-192.512 256 1.024 139.264 88.064 256 192.512 256v0zM128 35.328c0 126.976 89.088 236.544 218.112 288.768 47.104-40.96 104.448-64.512 165.888-64.512s118.784 23.552 165.888 64.512c129.024-51.2 218.112-161.792 218.112-288.768h-768z" />
<glyph unicode="&#xe928;" glyph-name="empty-browse" d="M1014.784 104.96h-113.664v7.168h113.664v-7.168zM882.688 104.96h-713.728v7.168h713.728v-7.168zM140.288 104.96h-82.944v7.168h82.944v-7.168zM37.888 104.96h-30.72v7.168h30.72v-7.168zM315.392 261.632h-16.384v-16.384h-7.168v16.384h-16.384v7.168h16.384v16.384h7.168v-16.384h16.384v-7.168zM805.888 590.336h-16.384v-16.384h-7.168v16.384h-16.384v7.168h16.384v16.384h7.168v-16.384h16.384v-7.168zM329.728 718.336h-16.384v-16.384h-7.168v16.384h-16.384v7.168h16.384v16.384h7.168v-16.384h16.384v-7.168zM12.288 363.008h-5.12v-5.12h-2.048v5.12h-5.12v2.048h5.12v5.12h2.048v-5.12h5.12v-2.048zM259.072 498.176h-5.12v-5.12h-2.048v5.12h-5.12v3.072h5.12v5.12h2.048v-5.12h5.12v-3.072zM958.464 306.688h-5.12v-5.12h-2.048v5.12h-5.12v2.048h5.12v5.12h2.048v-5.12h5.12v-2.048zM59.392 593.408h-4.096v-5.12h-3.072v5.12h-4.096v2.048h5.12v5.12h2.048v-5.12h5.12l-1.024-2.048zM744.448 152.064h-5.12v-5.12h-2.048v5.12h-4.096v2.048h5.12v5.12h2.048v-5.12h5.12l-1.024-2.048zM522.24 790.016h-5.12v-5.12h-2.048v5.12h-5.12v2.048h5.12v5.12h2.048v-5.12l5.12-2.048zM1024 714.24h-16.384v-14.336h-7.168v14.336h-16.384v9.216h16.384v14.336h7.168v-14.336h16.384v-9.216zM573.44 376.32c0-49.152 39.936-89.088 88.064-89.088 49.152 0 88.064 39.936 88.064 89.088s-39.936 89.088-88.064 89.088c-48.128 0-88.064-39.936-88.064-89.088v0zM716.8 431.616c7.168-7.168 12.288-15.36 16.384-24.576s6.144-19.456 6.144-30.72c0-10.24-2.048-20.48-6.144-30.72-4.096-9.216-9.216-17.408-16.384-24.576s-15.36-13.312-24.576-16.384c-9.216-4.096-19.456-6.144-30.72-6.144-10.24 0-20.48 2.048-30.72 6.144-9.216 4.096-17.408 9.216-24.576 16.384s-12.288 15.36-16.384 24.576c-4.096 9.216-6.144 19.456-6.144 30.72 0 10.24 2.048 20.48 6.144 30.72 4.096 9.216 9.216 17.408 16.384 24.576s15.36 13.312 24.576 16.384c9.216 4.096 19.456 6.144 30.72 6.144 10.24 0 20.48-2.048 30.72-6.144 9.216-4.096 17.408-9.216 24.576-16.384v0zM618.496 471.552v4.096c0 3.072-2.048 5.12-5.12 5.12h-176.128c-3.072 0-5.12-2.048-5.12-5.12v-4.096c0-3.072 2.048-5.12 5.12-5.12h176.128c3.072 0 5.12 3.072 5.12 5.12v0zM655.36 434.688v-88.064c0-3.072 2.048-5.12 5.12-5.12h4.096c3.072 0 5.12 2.048 5.12 5.12v88.064c0 3.072-2.048 5.12-5.12 5.12h-4.096c-3.072 0-5.12-2.048-5.12-5.12v0zM651.264 323.072c0-6.144 5.12-11.264 11.264-11.264s11.264 5.12 11.264 11.264c0 6.144-5.12 11.264-11.264 11.264s-11.264-5.12-11.264-11.264v0zM378.88 303.616h218.112c-5.12 4.096-10.24 9.216-13.312 14.336h-204.8c-1.024 0-3.072 1.024-3.072 3.072v354.304c0 2.048 1.024 3.072 3.072 3.072h51.2l19.456-35.84 2.048-2.048c2.048-2.048 3.072-2.048 3.072-3.072 1.024 0 3.072-2.048 6.144-2.048h131.072c5.12 0 7.168 2.048 8.192 2.048 1.024 1.024 3.072 2.048 6.144 6.144v0l17.408 32.768h51.2c1.024 0 3.072-1.024 3.072-3.072v-201.728c4.096-1.024 8.192-2.048 13.312-3.072v206.848c0 10.24-7.168 17.408-15.36 17.408h-54.272c-5.12-1.024-7.168-7.168-7.168-7.168l-20.48-31.744c0 0-1.024-2.048-2.048-2.048s-2.048 0-2.048 0h-129.024c0 0-1.024 0-2.048 0 0 0-1.024 1.024-1.024 1.024l-17.408 32.768c0 0-2.048 6.144-7.168 7.168h-54.272c-8.192 0-15.36-8.192-15.36-17.408v-354.304c-1.024-10.24 6.144-17.408 15.36-17.408v0zM476.16 678.4h98.304c3.072 0 5.12 2.048 5.12 5.12v4.096c0 3.072-2.048 5.12-5.12 5.12h-98.304c-3.072 0-5.12-2.048-5.12-5.12v-4.096c1.024-3.072 3.072-5.12 5.12-5.12v0zM433.152 402.944v-4.096c0-3.072 2.048-5.12 5.12-5.12h128c1.024 5.12 2.048 10.24 4.096 14.336h-133.12c-2.048 0-4.096-3.072-4.096-5.12v0zM437.248 540.16h176.128c3.072 0 5.12 2.048 5.12 5.12v4.096c0 3.072-2.048 5.12-5.12 5.12h-176.128c-3.072 0-5.12-2.048-5.12-5.12v-4.096c1.024-3.072 3.072-5.12 5.12-5.12v0z" />
<glyph unicode="&#xe929;" glyph-name="empty-convert" d="M1014.784 104.96h-113.664v7.168h113.664v-7.168zM882.688 104.96h-713.728v7.168h713.728v-7.168zM140.288 104.96h-82.944v7.168h82.944v-7.168zM37.888 104.96h-30.72v7.168h30.72v-7.168zM315.392 261.632h-16.384v-16.384h-7.168v16.384h-16.384v7.168h16.384v16.384h7.168v-16.384h16.384v-7.168zM805.888 590.336h-16.384v-16.384h-7.168v16.384h-16.384v7.168h16.384v16.384h7.168v-16.384h16.384v-7.168zM329.728 718.336h-16.384v-16.384h-7.168v16.384h-16.384v7.168h16.384v16.384h7.168v-16.384h16.384v-7.168zM12.288 363.008h-5.12v-5.12h-2.048v5.12h-5.12v2.048h5.12v5.12h2.048v-5.12h5.12v-2.048zM259.072 498.176h-5.12v-5.12h-2.048v5.12h-5.12v3.072h5.12v5.12h2.048v-5.12h5.12v-3.072zM958.464 306.688h-5.12v-5.12h-2.048v5.12h-5.12v2.048h5.12v5.12h2.048v-5.12h5.12v-2.048zM59.392 593.408h-4.096v-5.12h-3.072v5.12h-4.096v2.048h5.12v5.12h2.048v-5.12h5.12l-1.024-2.048zM744.448 152.064h-5.12v-5.12h-2.048v5.12h-4.096v2.048h5.12v5.12h2.048v-5.12h5.12l-1.024-2.048zM522.24 790.016h-5.12v-5.12h-2.048v5.12h-5.12v2.048h5.12v5.12h2.048v-5.12l5.12-2.048zM1024 714.24h-16.384v-14.336h-7.168v14.336h-16.384v9.216h16.384v14.336h7.168v-14.336h16.384v-9.216zM653.312 410.112v-55.296l47.104-47.104 6.144 5.12-46.080 45.056v52.224h-7.168zM661.504 455.168v23.552l-47.104-27.648 47.104-27.648v24.576c53.248 0 97.28-44.032 97.28-97.28s-44.032-97.28-97.28-97.28c-53.248 0-97.28 43.008-97.28 97.28h-7.168c0-57.344 47.104-104.448 104.448-104.448s104.448 47.104 104.448 104.448c0 57.344-47.104 103.424-104.448 104.448v0zM443.392 418.304c-4.096 0-6.144-3.072-6.144-7.168s3.072-7.168 6.144-7.168h101.376c2.048 5.12 5.12 9.216 7.168 14.336h-108.544zM548.864 295.424h-134.144c-18.432 0-33.792 15.36-33.792 33.792v318.464c0 18.432 15.36 33.792 33.792 33.792v1.024h242.688c18.432 0 33.792-15.36 33.792-33.792v-172.032c5.12-1.024 10.24-3.072 15.36-5.12v177.152c0 27.648-22.528 49.152-49.152 49.152h-242.688c-27.648 0-49.152-22.528-49.152-49.152v-317.44c0-27.648 22.528-49.152 49.152-49.152h141.312c-2.048 4.096-5.12 9.216-7.168 13.312zM626.688 579.072h-181.248c-4.096 0-6.144-3.072-6.144-7.168s3.072-7.168 6.144-7.168h180.224c4.096 0 6.144 3.072 6.144 7.168 1.024 4.096-2.048 7.168-5.12 7.168zM436.224 491.008c0-4.096 3.072-7.168 6.144-7.168h180.224c4.096 0 6.144 3.072 6.144 7.168s-3.072 7.168-6.144 7.168h-179.2c-4.096 0-7.168-3.072-7.168-7.168z" />
<glyph unicode="&#xe92a;" glyph-name="empty-course" d="M1014.784 104.96h-113.664v7.168h113.664v-7.168zM882.688 104.96h-713.728v7.168h713.728v-7.168zM140.288 104.96h-82.944v7.168h82.944v-7.168zM37.888 104.96h-30.72v7.168h30.72v-7.168zM315.392 261.632h-16.384v-16.384h-7.168v16.384h-16.384v7.168h16.384v16.384h7.168v-16.384h16.384v-7.168zM805.888 590.336h-16.384v-16.384h-7.168v16.384h-16.384v7.168h16.384v16.384h7.168v-16.384h16.384v-7.168zM329.728 718.336h-16.384v-16.384h-7.168v16.384h-16.384v7.168h16.384v16.384h7.168v-16.384h16.384v-7.168zM12.288 363.008h-5.12v-5.12h-2.048v5.12h-5.12v2.048h5.12v5.12h2.048v-5.12h5.12v-2.048zM259.072 498.176h-5.12v-5.12h-2.048v5.12h-5.12v3.072h5.12v5.12h2.048v-5.12h5.12v-3.072zM958.464 306.688h-5.12v-5.12h-2.048v5.12h-5.12v2.048h5.12v5.12h2.048v-5.12h5.12v-2.048zM59.392 593.408h-4.096v-5.12h-3.072v5.12h-4.096v2.048h5.12v5.12h2.048v-5.12h5.12l-1.024-2.048zM744.448 152.064h-5.12v-5.12h-2.048v5.12h-4.096v2.048h5.12v5.12h2.048v-5.12h5.12l-1.024-2.048zM522.24 790.016h-5.12v-5.12h-2.048v5.12h-5.12v2.048h5.12v5.12h2.048v-5.12l5.12-2.048zM1024 714.24h-16.384v-14.336h-7.168v14.336h-16.384v9.216h16.384v14.336h7.168v-14.336h16.384v-9.216zM657.408 294.4h-242.688c-26.624 0-49.152 21.504-49.152 49.152v317.44c0 26.624 21.504 49.152 49.152 49.152h242.688c26.624 0 49.152-21.504 49.152-49.152v-318.464c0-26.624-22.528-48.128-49.152-48.128zM414.72 693.76c-18.432 0-33.792-15.36-33.792-33.792v-318.464c0-18.432 15.36-33.792 33.792-33.792h242.688c18.432 0 33.792 15.36 33.792 33.792v319.488c0 18.432-15.36 33.792-33.792 33.792h-242.688zM660.48 566.784l-33.792 40.96-34.816-40.96v134.144h68.608zM537.6 586.24h-102.4c-4.096 0-7.168 3.072-7.168 7.168v0c0 4.096 3.072 7.168 7.168 7.168h102.4c4.096 0 7.168-3.072 7.168-7.168v0c1.024-3.072-3.072-7.168-7.168-7.168zM634.88 513.536h-199.68c-4.096 0-7.168 3.072-7.168 7.168v0c0 4.096 3.072 7.168 7.168 7.168h199.68c4.096 0 7.168-3.072 7.168-7.168v0c0-4.096-3.072-7.168-7.168-7.168zM634.88 440.832h-199.68c-4.096 0-7.168 3.072-7.168 7.168v0c0 4.096 3.072 7.168 7.168 7.168h199.68c4.096 0 7.168-3.072 7.168-7.168v0c0-4.096-3.072-7.168-7.168-7.168zM634.88 367.104h-199.68c-4.096 0-7.168 3.072-7.168 7.168v0c0 4.096 3.072 7.168 7.168 7.168h199.68c4.096 0 7.168-3.072 7.168-7.168v0c0-3.072-3.072-7.168-7.168-7.168z" />
<glyph unicode="&#xe92b;" glyph-name="empty-read" d="M1014.784 104.96h-113.664v7.168h113.664v-7.168zM882.688 104.96h-713.728v7.168h713.728v-7.168zM140.288 104.96h-82.944v7.168h82.944v-7.168zM37.888 104.96h-30.72v7.168h30.72v-7.168zM315.392 261.632h-16.384v-16.384h-7.168v16.384h-16.384v7.168h16.384v16.384h7.168v-16.384h16.384v-7.168zM805.888 590.336h-16.384v-16.384h-7.168v16.384h-16.384v7.168h16.384v16.384h7.168v-16.384h16.384v-7.168zM329.728 718.336h-16.384v-16.384h-7.168v16.384h-16.384v7.168h16.384v16.384h7.168v-16.384h16.384v-7.168zM12.288 363.008h-5.12v-5.12h-2.048v5.12h-5.12v2.048h5.12v5.12h2.048v-5.12h5.12v-2.048zM259.072 498.176h-5.12v-5.12h-2.048v5.12h-5.12v3.072h5.12v5.12h2.048v-5.12h5.12v-3.072zM958.464 306.688h-5.12v-5.12h-2.048v5.12h-5.12v2.048h5.12v5.12h2.048v-5.12h5.12v-2.048zM59.392 593.408h-4.096v-5.12h-3.072v5.12h-4.096v2.048h5.12v5.12h2.048v-5.12h5.12l-1.024-2.048zM744.448 152.064h-5.12v-5.12h-2.048v5.12h-4.096v2.048h5.12v5.12h2.048v-5.12h5.12l-1.024-2.048zM522.24 790.016h-5.12v-5.12h-2.048v5.12h-5.12v2.048h5.12v5.12h2.048v-5.12l5.12-2.048zM1024 714.24h-16.384v-14.336h-7.168v14.336h-16.384v9.216h16.384v14.336h7.168v-14.336h16.384v-9.216zM707.584 648.704c-6.144 1.024-54.272 6.144-96.256 6.144-35.84 0-60.416-7.168-69.632-12.288-3.072-1.024-9.216-5.12-15.36-10.24-6.144 5.12-13.312 9.216-15.36 10.24-9.216 4.096-32.768 12.288-69.632 12.288-41.984 0-90.112-5.12-96.256-6.144-17.408 0-31.744-14.336-31.744-31.744v-260.096c0-17.408 14.336-31.744 31.744-31.744 0 0 0 0 0 0 1.024 0 1.024 0 2.048 0 5.12 1.024 29.696 4.096 56.32 5.12 48.128 3.072 66.56 0 72.704-1.024 0 0 0 0 0 0s0 0 0 0 0 0 0 0 0 0 0 0 0 0 0 0 0 0 0 0c3.072-1.024 8.192-2.048 13.312-4.096 10.24-3.072 22.528-7.168 34.816-7.168 10.24 0 21.504 3.072 32.768 6.144 8.192 2.048 15.36 4.096 20.48 4.096 1.024 0 3.072 0 4.096 1.024 55.296 8.192 119.808-4.096 120.832-4.096h4.096c17.408 0 31.744 14.336 31.744 31.744v260.096c0 17.408-13.312 31.744-30.72 31.744v0 0zM487.424 343.552c-32.768 9.216-128-1.024-147.456-3.072-5.12 0-9.216 4.096-9.216 2.048v274.432c0 12.288 11.264 16.384 16.384 16.384h2.048c1.024 0 53.248 6.144 96.256 6.144 32.768 0 53.248-6.144 60.416-10.24v0 0c6.144-3.072 13.312-8.192 14.336-11.264v-283.648c0-1.024 0-1.024 0-2.048-6.144 1.024-11.264 3.072-16.384 5.12-6.144 3.072-11.264 5.12-16.384 6.144v0 0zM720.896 348.672c0-5.12-4.096-9.216-8.192-9.216-10.24 2.048-75.776 12.288-133.12 4.096 0 0-1.024 0-1.024 0-7.168-1.024-15.36-3.072-24.576-5.12-5.12-1.024-10.24-3.072-15.36-4.096 0 1.024 0 1.024 0 2.048v281.6c1.024 3.072 8.192 8.192 14.336 11.264v0 0c7.168 3.072 27.648 10.24 60.416 10.24 43.008 0 96.256-6.144 96.256-6.144h2.048c5.12 0 9.216-4.096 9.216-9.216v-275.456zM472.064 449.024c-1.024 0-19.456 9.216-37.888 9.216-25.6 0-35.84-3.072-45.056-5.12-1.024 0-3.072-1.024-4.096-1.024-4.096-1.024-6.144-5.12-5.12-9.216s5.12-6.144 9.216-5.12c2.048 0 3.072 1.024 4.096 1.024 9.216 2.048 17.408 5.12 40.96 5.12 14.336 0 31.744-7.168 31.744-7.168 1.024 0 2.048-1.024 3.072-1.024 3.072 0 5.12 2.048 6.144 4.096 2.048 3.072 0 7.168-3.072 9.216v0 0zM472.064 545.28c-1.024 0-19.456 9.216-37.888 9.216-25.6 0-35.84-3.072-45.056-5.12-1.024 0-3.072-1.024-4.096-1.024-4.096-1.024-6.144-5.12-5.12-9.216s5.12-6.144 9.216-5.12c2.048 0 3.072 1.024 4.096 1.024 9.216 2.048 17.408 5.12 40.96 5.12 14.336 0 31.744-7.168 31.744-7.168 1.024 0 2.048-1.024 3.072-1.024 3.072 0 5.12 2.048 6.144 4.096 2.048 3.072 0 7.168-3.072 9.216v0 0zM669.696 449.024c-1.024 0-19.456 9.216-37.888 9.216-25.6 0-35.84-3.072-45.056-5.12-1.024 0-3.072-1.024-4.096-1.024-4.096-1.024-6.144-5.12-5.12-9.216s5.12-6.144 9.216-5.12c2.048 0 3.072 1.024 4.096 1.024 9.216 2.048 17.408 5.12 40.96 5.12 14.336 0 31.744-7.168 31.744-7.168 1.024 0 2.048-1.024 3.072-1.024 3.072 0 5.12 2.048 6.144 4.096 2.048 3.072 1.024 7.168-3.072 9.216v0 0zM669.696 545.28c-1.024 0-19.456 9.216-37.888 9.216-25.6 0-35.84-3.072-45.056-5.12-1.024 0-3.072-1.024-4.096-1.024-4.096-1.024-6.144-5.12-5.12-9.216s5.12-6.144 9.216-5.12c2.048 0 3.072 1.024 4.096 1.024 9.216 2.048 17.408 5.12 40.96 5.12 14.336 0 31.744-7.168 31.744-7.168 1.024 0 2.048-1.024 3.072-1.024 3.072 0 5.12 2.048 6.144 4.096 2.048 3.072 1.024 7.168-3.072 9.216v0 0z" />
<glyph unicode="&#xe92c;" glyph-name="empty-search" d="M1014.784 104.96h-113.664v7.168h113.664v-7.168zM882.688 104.96h-713.728v7.168h713.728v-7.168zM140.288 104.96h-82.944v7.168h82.944v-7.168zM37.888 104.96h-30.72v7.168h30.72v-7.168zM315.392 261.632h-16.384v-16.384h-7.168v16.384h-16.384v7.168h16.384v16.384h7.168v-16.384h16.384v-7.168zM805.888 590.336h-16.384v-16.384h-7.168v16.384h-16.384v7.168h16.384v16.384h7.168v-16.384h16.384v-7.168zM329.728 718.336h-16.384v-16.384h-7.168v16.384h-16.384v7.168h16.384v16.384h7.168v-16.384h16.384v-7.168zM12.288 363.008h-5.12v-5.12h-2.048v5.12h-5.12v2.048h5.12v5.12h2.048v-5.12h5.12v-2.048zM259.072 498.176h-5.12v-5.12h-2.048v5.12h-5.12v3.072h5.12v5.12h2.048v-5.12h5.12v-3.072zM958.464 306.688h-5.12v-5.12h-2.048v5.12h-5.12v2.048h5.12v5.12h2.048v-5.12h5.12v-2.048zM59.392 593.408h-4.096v-5.12h-3.072v5.12h-4.096v2.048h5.12v5.12h2.048v-5.12h5.12l-1.024-2.048zM744.448 152.064h-5.12v-5.12h-2.048v5.12h-4.096v2.048h5.12v5.12h2.048v-5.12h5.12l-1.024-2.048zM522.24 790.016h-5.12v-5.12h-2.048v5.12h-5.12v2.048h5.12v5.12h2.048v-5.12l5.12-2.048zM1024 714.24h-16.384v-14.336h-7.168v14.336h-16.384v9.216h16.384v14.336h7.168v-14.336h16.384v-9.216zM547.84 324.096h-181.248c-4.096 0-7.168 3.072-7.168 7.168v338.944c0 4.096 3.072 7.168 7.168 7.168h291.84c4.096 0 7.168-3.072 7.168-7.168v-160.768c5.12-2.048 9.216-5.12 13.312-8.192v172.032c0 9.216-8.192 17.408-17.408 17.408h-297.984c-9.216 0-17.408-8.192-17.408-17.408v-346.112c0-9.216 8.192-17.408 17.408-17.408h206.848c-8.192 4.096-15.36 9.216-22.528 14.336v0zM507.904 398.848h-90.112c-4.096 0-7.168-3.072-7.168-7.168s3.072-7.168 7.168-7.168h92.16c-1.024 5.12-2.048 9.216-2.048 14.336v0zM417.792 548.352h190.464c4.096 0 7.168 3.072 7.168 7.168s-3.072 7.168-7.168 7.168h-190.464c-4.096 0-7.168-3.072-7.168-7.168s3.072-7.168 7.168-7.168v0zM417.792 602.624h190.464c4.096 0 7.168 3.072 7.168 7.168s-3.072 7.168-7.168 7.168h-190.464c-4.096 0-7.168-3.072-7.168-7.168s3.072-7.168 7.168-7.168v0zM417.792 439.808h93.184c1.024 5.12 3.072 9.216 5.12 13.312h-98.304c-4.096 0-7.168-3.072-7.168-7.168 0-3.072 3.072-6.144 7.168-6.144v0zM417.792 494.080h126.976c6.144 5.12 12.288 10.24 19.456 13.312h-146.432c-4.096 0-7.168-3.072-7.168-7.168 0-3.072 3.072-6.144 7.168-6.144v0zM707.584 312.832l-32.768 32.768c-3.072 3.072-3.072 7.168 0 9.216l5.12 5.12c3.072 3.072 7.168 3.072 9.216 0l32.768-32.768c4.096-4.096 4.096-11.264 0-15.36-3.072-3.072-10.24-3.072-14.336 1.024v0zM617.472 489.984c21.504 0 40.96-8.192 56.32-23.552 14.336-15.36 22.528-34.816 22.528-56.32s-8.192-40.96-23.552-56.32-34.816-23.552-56.32-23.552-40.96 8.192-56.32 23.552c-14.336 15.36-22.528 35.84-22.528 56.32 0 21.504 8.192 40.96 23.552 56.32 15.36 14.336 34.816 23.552 56.32 23.552v0zM617.472 503.296c-23.552 0-47.104-9.216-65.536-27.648-35.84-35.84-35.84-95.232 0-131.072 18.432-18.432 41.984-27.648 65.536-27.648s47.104 9.216 65.536 27.648c35.84 35.84 35.84 95.232 0 131.072-18.432 18.432-41.984 27.648-65.536 27.648z" />
<glyph unicode="&#xe92d;" glyph-name="empty-task" d="M1014.784 104.96h-113.664v7.168h113.664v-7.168zM882.688 104.96h-713.728v7.168h713.728v-7.168zM140.288 104.96h-82.944v7.168h82.944v-7.168zM37.888 104.96h-30.72v7.168h30.72v-7.168zM315.392 261.632h-16.384v-16.384h-7.168v16.384h-16.384v7.168h16.384v16.384h7.168v-16.384h16.384v-7.168zM805.888 590.336h-16.384v-16.384h-7.168v16.384h-16.384v7.168h16.384v16.384h7.168v-16.384h16.384v-7.168zM329.728 718.336h-16.384v-16.384h-7.168v16.384h-16.384v7.168h16.384v16.384h7.168v-16.384h16.384v-7.168zM12.288 363.008h-5.12v-5.12h-2.048v5.12h-5.12v2.048h5.12v5.12h2.048v-5.12h5.12v-2.048zM259.072 498.176h-5.12v-5.12h-2.048v5.12h-5.12v3.072h5.12v5.12h2.048v-5.12h5.12v-3.072zM958.464 306.688h-5.12v-5.12h-2.048v5.12h-5.12v2.048h5.12v5.12h2.048v-5.12h5.12v-2.048zM59.392 593.408h-4.096v-5.12h-3.072v5.12h-4.096v2.048h5.12v5.12h2.048v-5.12h5.12l-1.024-2.048zM744.448 152.064h-5.12v-5.12h-2.048v5.12h-4.096v2.048h5.12v5.12h2.048v-5.12h5.12l-1.024-2.048zM522.24 790.016h-5.12v-5.12h-2.048v5.12h-5.12v2.048h5.12v5.12h2.048v-5.12l5.12-2.048zM1024 714.24h-16.384v-14.336h-7.168v14.336h-16.384v9.216h16.384v14.336h7.168v-14.336h16.384v-9.216zM422.912 606.72h103.424v-14.336h-103.424v14.336zM422.912 544.256h103.424v-13.312h-103.424v13.312zM422.912 481.792h188.416v-13.312h-188.416v13.312zM422.912 419.328h188.416v-13.312h-188.416v13.312zM685.056 623.104c0 0 0 0 0 0 0 2.048-1.024 3.072-2.048 4.096l-112.64 112.64c-1.024 1.024-2.048 1.024-3.072 2.048 0 0-1.024 0-1.024 0s-1.024 0-1.024 0h-166.912c-26.624 0-49.152-21.504-49.152-49.152v-333.824c0-26.624 21.504-49.152 49.152-49.152h237.568c26.624 0 49.152 21.504 49.152 49.152v264.192c0-1.024 0 0 0 0v0zM661.504 629.248h-54.272c-19.456 0-35.84 16.384-35.84 35.84v54.272l90.112-90.112zM635.904 323.072h-237.568c-19.456 0-35.84 16.384-35.84 35.84v333.824c0 19.456 16.384 35.84 35.84 35.84h159.744v-64.512c0-26.624 21.504-49.152 49.152-49.152h64.512v-256c0-19.456-16.384-35.84-35.84-35.84v0z" />
<glyph unicode="&#xe92e;" glyph-name="empty-test" d="M1014.784 104.96h-113.664v7.168h113.664v-7.168zM882.688 104.96h-713.728v7.168h713.728v-7.168zM140.288 104.96h-82.944v7.168h82.944v-7.168zM37.888 104.96h-30.72v7.168h30.72v-7.168zM315.392 261.632h-16.384v-16.384h-7.168v16.384h-16.384v7.168h16.384v16.384h7.168v-16.384h16.384v-7.168zM805.888 590.336h-16.384v-16.384h-7.168v16.384h-16.384v7.168h16.384v16.384h7.168v-16.384h16.384v-7.168zM329.728 718.336h-16.384v-16.384h-7.168v16.384h-16.384v7.168h16.384v16.384h7.168v-16.384h16.384v-7.168zM12.288 363.008h-5.12v-5.12h-2.048v5.12h-5.12v2.048h5.12v5.12h2.048v-5.12h5.12v-2.048zM259.072 498.176h-5.12v-5.12h-2.048v5.12h-5.12v3.072h5.12v5.12h2.048v-5.12h5.12v-3.072zM958.464 306.688h-5.12v-5.12h-2.048v5.12h-5.12v2.048h5.12v5.12h2.048v-5.12h5.12v-2.048zM59.392 593.408h-4.096v-5.12h-3.072v5.12h-4.096v2.048h5.12v5.12h2.048v-5.12h5.12l-1.024-2.048zM744.448 152.064h-5.12v-5.12h-2.048v5.12h-4.096v2.048h5.12v5.12h2.048v-5.12h5.12l-1.024-2.048zM522.24 790.016h-5.12v-5.12h-2.048v5.12h-5.12v2.048h5.12v5.12h2.048v-5.12l5.12-2.048zM1024 714.24h-16.384v-14.336h-7.168v14.336h-16.384v9.216h16.384v14.336h7.168v-14.336h16.384v-9.216zM732.16 574.976l-128-128-94.208-34.816 35.84 93.184 129.024 128c13.312 13.312 33.792 13.312 47.104 0l11.264-11.264c12.288-13.312 12.288-33.792-1.024-47.104v0zM538.624 440.832l56.32 20.48 3.072 3.072-34.816 34.816-3.072-3.072-21.504-55.296zM574.464 511.488l34.816-34.816 88.064 87.040-34.816 34.816-88.064-87.040zM720.896 610.816l-11.264 11.264c-6.144 6.144-17.408 6.144-23.552 0l-12.288-12.288 34.816-34.816 12.288 12.288c6.144 6.144 6.144 16.384 0 23.552v0zM418.816 403.968v16.384h81.92l-6.144-16.384h-75.776zM513.024 453.12h-94.208v16.384h100.352l-6.144-16.384zM418.816 568.832h82.944v-16.384h-82.944v16.384zM501.76 503.296h-82.944v16.384h82.944v-16.384zM601.088 420.352v-16.384h-80.896l45.056 16.384h35.84zM560.128 663.040v-60.416c0-9.216 7.168-16.384 16.384-16.384h25.6l-16.384-16.384h-9.216c-18.432 0-32.768 14.336-32.768 32.768v73.728h-150.528c-9.216 0-16.384-7.168-16.384-16.384v-313.344c0-9.216 7.168-16.384 16.384-16.384h232.448c9.216 0 16.384 7.168 16.384 16.384v115.712l16.384 16.384v-133.12c0-18.432-15.36-32.768-32.768-32.768h-232.448c-18.432 0-32.768 14.336-32.768 32.768v314.368c0 18.432 15.36 32.768 32.768 32.768h160.768l74.752-79.872-11.264-11.264-57.344 61.44zM560.128 663.040v0z" />
<glyph unicode="&#xe92f;" glyph-name="empty-thoughts" d="M1008.64 105.984h-113.664v7.168h113.664v-7.168zM876.544 105.984h-713.728v7.168h713.728v-7.168zM134.144 105.984h-82.944v7.168h82.944v-7.168zM31.744 105.984h-30.72v7.168h30.72v-7.168zM309.248 262.656h-16.384v-16.384h-7.168v16.384h-16.384v7.168h16.384v16.384h7.168v-16.384h16.384v-7.168zM799.744 591.36h-16.384v-16.384h-7.168v16.384h-16.384v7.168h16.384v16.384h7.168v-16.384h16.384v-7.168zM323.584 719.36h-16.384v-16.384h-7.168v16.384h-16.384v7.168h16.384v16.384h7.168v-16.384h16.384v-7.168zM6.144 364.032h-5.12v-5.12h-2.048v5.12h-5.12v2.048h5.12v5.12h2.048v-5.12h5.12v-2.048zM252.928 499.2h-5.12v-5.12h-2.048v5.12h-5.12v3.072h5.12v5.12h2.048v-5.12h5.12v-3.072zM952.32 307.712h-5.12v-5.12h-2.048v5.12h-5.12v2.048h5.12v5.12h2.048v-5.12h5.12v-2.048zM53.248 594.432h-4.096v-5.12h-3.072v5.12h-4.096v2.048h5.12v5.12h2.048v-5.12h5.12l-1.024-2.048zM738.304 153.088h-5.12v-5.12h-2.048v5.12h-4.096v2.048h5.12v5.12h2.048v-5.12h5.12l-1.024-2.048zM516.096 791.040h-5.12v-5.12h-2.048v5.12h-5.12v2.048h5.12v5.12h2.048v-5.12l5.12-2.048zM1017.856 715.264h-16.384v-14.336h-7.168v14.336h-16.384v9.216h16.384v14.336h7.168v-14.336h16.384v-9.216zM658.432 450.048v212.992c0 14.336-12.288 28.672-28.672 28.672h-308.224c-14.336 0-28.672-12.288-28.672-28.672v-210.944c0-14.336 12.288-28.672 28.672-28.672h37.888v-73.728l73.728 73.728h196.608c14.336 0 28.672 12.288 28.672 26.624zM307.2 660.992c0 14.336 5.12 16.384 19.456 16.384h301.056c14.336 0 16.384-5.12 16.384-16.384v-208.896c0-9.216-14.336-16.384-21.504-16.384h-192.512l-59.392-57.344v57.344h-45.056c-14.336 0-19.456 2.048-19.456 16.384l1.024 208.896zM709.632 639.488h-28.672v-14.336h25.6c0 0 7.168 0 12.288-7.168 2.048-2.048 2.048-7.168 2.048-7.168v-212.992c0 0 0-5.12-2.048-9.216-2.048-2.048-9.216-5.12-9.216-5.12h-52.224v-57.344l-57.344 54.272h-146.432v-14.336h144.384l73.728-73.728v73.728h37.888c14.336 0 28.672 12.288 28.672 28.672v210.944c0 21.504-11.264 33.792-28.672 33.792v0zM375.808 551.424c0-9.216 9.216-19.456 19.456-19.456 9.216 0 19.456 9.216 19.456 19.456s-9.216 19.456-19.456 19.456c-12.288 0-19.456-10.24-19.456-19.456v0zM456.704 551.424c0-9.216 9.216-19.456 19.456-19.456 9.216 0 19.456 9.216 19.456 19.456s-9.216 19.456-19.456 19.456c-12.288 0-19.456-10.24-19.456-19.456v0zM537.6 551.424c0-9.216 9.216-19.456 19.456-19.456 9.216 0 19.456 9.216 19.456 19.456s-9.216 19.456-19.456 19.456-19.456-10.24-19.456-19.456v0z" />
<glyph unicode="&#xe930;" glyph-name="gotop" d="M506.88 937.472l-299.008-218.112h608.256zM289.792 334.336h-118.784v-362.496h-53.248v362.496h-117.76v47.104h289.792v-47.104zM300.032 171.52c0 66.56 17.408 118.784 53.248 157.696s83.968 58.368 145.408 58.368c57.344 0 102.4-19.456 137.216-57.344s52.224-88.064 52.224-149.504c0-66.56-17.408-118.784-53.248-158.72-35.84-38.912-82.944-58.368-143.36-58.368-58.368 0-104.448 19.456-140.288 57.344-33.792 38.912-51.2 89.088-51.2 150.528zM355.328 175.616c0-49.152 12.288-89.088 37.888-118.784s58.368-45.056 99.328-45.056c44.032 0 77.824 14.336 103.424 43.008 24.576 28.672 37.888 68.608 37.888 119.808 0 53.248-12.288 94.208-36.864 122.88s-58.368 43.008-100.352 43.008c-41.984 0-75.776-15.36-101.376-45.056-26.624-30.72-39.936-70.656-39.936-119.808zM821.248 124.416v-153.6h-53.248v409.6h116.736c44.032 0 78.848-10.24 103.424-31.744s36.864-52.224 36.864-91.136c0-39.936-14.336-72.704-43.008-97.28s-64.512-36.864-107.52-35.84h-53.248zM821.248 334.336v-163.84h49.152c32.768 0 56.32 7.168 73.728 21.504 16.384 14.336 25.6 35.84 25.6 62.464 0 53.248-30.72 78.848-93.184 78.848h-55.296z" />
<glyph unicode="&#xe931;" glyph-name="report" d="M921.6 963.072c-38.912 1.024-71.68-30.72-72.704-69.632 0-4.096 1.024-7.168 2.048-10.24l-144.384-135.168c-11.264 7.168-24.576 11.264-37.888 12.288-26.624 0-51.2-14.336-63.488-37.888l-164.864 30.72c-12.288 37.888-52.224 58.368-90.112 46.080-24.576-8.192-43.008-28.672-48.128-53.248l-164.864-95.232c-30.72 22.528-73.728 15.36-96.256-15.36s-15.36-73.728 15.36-96.256c30.72-22.528 73.728-15.36 96.256 15.36 6.144 8.192 10.24 18.432 12.288 28.672l164.864 94.208c12.288-9.216 27.648-14.336 43.008-15.36 18.432 0 35.84 7.168 50.176 19.456l189.44-35.84c14.336-15.36 33.792-24.576 54.272-24.576 34.816 0 64.512 24.576 70.656 58.368l163.84 146.432c7.168-2.048 14.336-4.096 21.504-4.096 38.912-1.024 70.656 28.672 71.68 67.584s-28.672 70.656-67.584 71.68c-2.048 2.048-3.072 2.048-5.12 2.048v0 0zM97.28-60.928h-21.504c-27.648 0-51.2 21.504-52.224 50.176v379.904c1.024 27.648 23.552 50.176 52.224 50.176h21.504c28.672 1.024 51.2-21.504 52.224-50.176 0 0 0 0 0 0v-379.904c-1.024-28.672-23.552-51.2-52.224-50.176 0 0 0 0 0 0zM376.832-60.928h-12.288c-30.72-1.024-55.296 23.552-56.32 54.272v484.352c1.024 30.72 25.6 54.272 56.32 54.272h12.288c30.72 1.024 55.296-23.552 56.32-54.272v-484.352c-1.024-30.72-26.624-55.296-56.32-54.272zM664.576-60.928h-21.504c-28.672-1.024-51.2 21.504-52.224 50.176 0 0 0 0 0 0v404.48c1.024 28.672 23.552 50.176 52.224 50.176 0 0 0 0 0 0h21.504c27.648 0 51.2-21.504 52.224-50.176v-405.504c-1.024-27.648-24.576-49.152-52.224-49.152zM943.104-60.928h-13.312c-30.72-1.024-55.296 23.552-56.32 54.272v616.448c1.024 30.72 25.6 54.272 56.32 54.272h13.312c30.72 1.024 55.296-23.552 56.32-54.272v-616.448c0-30.72-25.6-55.296-56.32-54.272z" />
<glyph unicode="&#xe932;" glyph-name="task" d="M659.456 815.616c0 80.896-65.536 147.456-147.456 147.456s-148.48-66.56-148.48-147.456h-73.728v-72.704h443.392v72.704h-73.728zM438.272 815.616c0 40.96 32.768 73.728 73.728 73.728s73.728-32.768 73.728-73.728h-147.456zM848.896 815.616c45.056-1.024 80.896-37.888 79.872-82.944v-709.632c1.024-45.056-34.816-81.92-79.872-82.944h-673.792c-45.056 1.024-79.872 38.912-78.848 82.944 0 0 0 0 0 0v708.608c-1.024 45.056 33.792 81.92 78.848 82.944h59.392v-72.704h-29.696c-22.528-1.024-39.936-19.456-39.936-41.984v-647.168c0-22.528 17.408-40.96 39.936-41.984h614.4c22.528 1.024 39.936 19.456 38.912 41.984 0 0 0 0 0 0v648.192c1.024 22.528-16.384 40.96-38.912 41.984 0 0 0 0 0 0h-29.696v72.704h59.392zM289.792 158.208c-20.48 0-36.864 16.384-36.864 36.864s16.384 36.864 36.864 36.864c0 0 0 0 0 0h443.392c20.48 0 36.864-16.384 36.864-36.864s-16.384-36.864-36.864-36.864c0 0 0 0 0 0h-443.392zM289.792 340.48c-20.48-1.024-36.864 15.36-37.888 34.816-1.024 20.48 15.36 36.864 34.816 37.888 1.024 0 2.048 0 2.048 0h443.392c20.48 1.024 36.864-15.36 37.888-34.816 1.024-20.48-15.36-36.864-34.816-37.888-1.024 0-2.048 0-2.048 0h-443.392zM289.792 522.752c-20.48-1.024-36.864 15.36-37.888 34.816-1.024 20.48 15.36 36.864 34.816 37.888 1.024 0 2.048 0 2.048 0h443.392c20.48 1.024 36.864-15.36 37.888-34.816 1.024-20.48-15.36-36.864-34.816-37.888-1.024 0-2.048 0-2.048 0h-443.392zM289.792 522.752v0z" />
<glyph unicode="&#xe933;" glyph-name="money" d="M494.592 704v0zM1024 451.072c0-282.624-229.376-512-512-512s-512 229.376-512 512c0 282.624 229.376 512 512 512s512-229.376 512-512v0zM475.136 154.112h73.728v119.808h147.456v59.392h-147.456v83.968h147.456v58.368h-126.976l1.024 1.024 158.72 271.36h-78.848l-90.112-166.912c-23.552-45.056-38.912-74.752-44.032-90.112v0h-2.048c-15.36 35.84-61.44 121.856-134.144 256h-83.968l158.72-272.384h-132.096v-58.368h152.576v-83.968h-152.576v-59.392h152.576v-118.784z" />
<glyph unicode="&#xe934;" glyph-name="leave" d="M236.544 814.592c-32.768-22.528-61.44-49.152-86.016-77.824-25.6-28.672-47.104-60.416-64.512-94.208-18.432-33.792-31.744-69.632-40.96-107.52-10.24-36.864-14.336-75.776-14.336-113.664 0-66.56 12.288-129.024 37.888-187.392 25.6-59.392 60.416-110.592 103.424-153.6s94.208-77.824 152.576-103.424c58.368-25.6 120.832-37.888 187.392-37.888 65.536 0 128 12.288 186.368 37.888s109.568 59.392 153.6 103.424c44.032 43.008 77.824 94.208 103.424 152.576s37.888 120.832 37.888 187.392c0 37.888-4.096 75.776-13.312 111.616-9.216 36.864-21.504 71.68-37.888 104.448s-36.864 63.488-61.44 92.16c-24.576 28.672-51.2 54.272-81.92 77.824-15.36 11.264-32.768 15.36-51.2 13.312-18.432-3.072-32.768-12.288-45.056-26.624-11.264-15.36-15.36-31.744-13.312-50.176 3.072-18.432 12.288-33.792 26.624-45.056 45.056-32.768 79.872-73.728 103.424-121.856s35.84-99.328 35.84-154.624c0-47.104-9.216-92.16-26.624-134.144-18.432-41.984-41.984-78.848-73.728-109.568-30.72-30.72-67.584-56.32-109.568-73.728-41.984-18.432-87.040-27.648-134.144-27.648s-92.16 9.216-134.144 27.648c-41.984 18.432-78.848 43.008-109.568 73.728s-56.32 67.584-73.728 109.568c-18.432 41.984-27.648 87.040-27.648 134.144 0 56.32 13.312 108.544 38.912 158.72s62.464 91.136 108.544 122.88c15.36 11.264 25.6 25.6 28.672 44.032s-1.024 35.84-11.264 51.2c-11.264 15.36-25.6 24.576-44.032 27.648-17.408 3.072-34.816 0-50.176-11.264v0 0 0zM513.024 417.28c18.432 0 34.816 6.144 48.128 19.456s19.456 29.696 19.456 48.128v409.6c0 18.432-6.144 34.816-19.456 48.128s-29.696 20.48-48.128 20.48c-19.456 0-35.84-7.168-49.152-20.48s-19.456-29.696-19.456-48.128v-408.576c0-18.432 6.144-34.816 19.456-48.128s29.696-20.48 49.152-20.48v0 0 0z" />
<glyph unicode="&#xe935;" glyph-name="leave2" d="M756.736 211.456l103.424 92.16 163.84 146.432-163.84 146.432-103.424 92.16c-23.552 21.504-61.44 4.096-61.44-27.648v-138.24c-2.048 0-4.096 0-6.144 0h-394.24c-39.936 0-73.728-32.768-73.728-73.728 0-39.936 32.768-73.728 73.728-73.728h394.24c2.048 0 4.096 0 6.144 0v-138.24c0-29.696 37.888-47.104 61.44-25.6v0zM71.68 83.456v733.184c0 39.936 32.768 73.728 73.728 73.728h734.208v33.792c0 39.936-32.768 38.912-73.728 38.912h-732.16c-40.96 0-73.728-32.768-73.728-73.728v-876.544c0-39.936 32.768-73.728 73.728-73.728h732.16c39.936 0 73.728-5.12 73.728 34.816v36.864h-734.208c-40.96 0-73.728 32.768-73.728 72.704v0z" />
<glyph unicode="&#xe936;" glyph-name="taskcenter" d="M312.32 356.864l111.616-111.616c9.216-9.216 20.48-13.312 31.744-13.312s22.528 4.096 31.744 13.312l224.256 224.256c17.408 17.408 17.408 46.080 0 63.488s-46.080 17.408-63.488 0l-192.512-192.512-79.872 79.872c-17.408 17.408-46.080 17.408-63.488 0s-17.408-46.080 0-63.488v0zM915.456 890.368h-195.584c7.168-10.24 11.264-22.528 11.264-35.84s-4.096-25.6-11.264-35.84h159.744v-806.912h-735.232v806.912h158.72c-7.168 10.24-11.264 22.528-11.264 35.84s4.096 25.6 11.264 35.84h-194.56c-20.48 0-35.84-16.384-35.84-35.84v-879.616c0-20.48 16.384-35.84 35.84-35.84h807.936c20.48 0 35.84 16.384 35.84 35.84v879.616c0 20.48-16.384 35.84-36.864 35.84v0zM435.2 743.936h151.552c38.912 0 70.656 31.744 70.656 70.656v6.144c0 38.912-31.744 70.656-70.656 70.656h-3.072c2.048 6.144 4.096 12.288 4.096 19.456-1.024 28.672-24.576 52.224-53.248 52.224h-44.032c-28.672 0-52.224-23.552-52.224-52.224 0-7.168 1.024-13.312 4.096-19.456h-6.144c-38.912 0-70.656-31.744-70.656-70.656v-6.144c-1.024-38.912 30.72-70.656 69.632-70.656v0z" />
<glyph unicode="&#xe937;" glyph-name="classes" d="M267.264 467.456c1.024 2.048 1.024 4.096 1.024 7.168 0 1.024 1.024 3.072 1.024 4.096 0 3.072 0 6.144 0 8.192 0 1.024 0 3.072 0 4.096s-1.024 1.024-1.024 2.048c-1.024 2.048-1.024 3.072-2.048 5.12-1.024 3.072-3.072 6.144-5.12 8.192 0 0-1.024 1.024-1.024 1.024-5.12 5.12-11.264 8.192-17.408 10.24-32.768 15.36-58.368 55.296-58.368 98.304 0 51.2 34.816 95.232 83.968 106.496 19.456 5.12 31.744 24.576 26.624 44.032s-24.576 31.744-44.032 26.624c-81.92-19.456-140.288-93.184-140.288-178.176 0-46.080 17.408-90.112 47.104-122.88-95.232-48.128-157.696-147.456-157.696-259.072v-56.32c0-20.48 16.384-36.864 36.864-36.864s36.864 16.384 36.864 36.864v56.32c0 101.376 67.584 188.416 165.888 212.992 11.264 2.048 22.528 9.216 27.648 21.504zM866.304 493.056c29.696 32.768 47.104 76.8 47.104 122.88 0 82.944-55.296 155.648-135.168 177.152-19.456 5.12-39.936-6.144-45.056-25.6s6.144-39.936 25.6-45.056c48.128-13.312 80.896-56.32 80.896-106.496 0-43.008-25.6-82.944-65.536-100.352-4.096-2.048-8.192-4.096-11.264-8.192 0 0-1.024-1.024-1.024-1.024-2.048-2.048-4.096-5.12-5.12-8.192-1.024-1.024-2.048-3.072-2.048-4.096s-1.024-1.024-1.024-2.048c0-1.024 0-3.072 0-4.096 0-3.072-1.024-5.12 0-8.192 0-1.024 1.024-3.072 1.024-4.096 0-2.048 0-5.12 1.024-7.168 5.12-12.288 16.384-19.456 28.672-21.504 97.28-24.576 165.888-111.616 165.888-212.992v-56.32c0-20.48 16.384-36.864 36.864-36.864s36.864 16.384 36.864 36.864v56.32c0 110.592-62.464 209.92-157.696 259.072zM647.168 479.744c51.2 39.936 83.968 102.4 83.968 172.032 0 120.832-98.304 219.136-219.136 219.136s-219.136-98.304-219.136-219.136c0-69.632 32.768-132.096 83.968-172.032-135.168-54.272-230.4-185.344-230.4-339.968v-72.704c0-20.48 16.384-36.864 36.864-36.864h658.432c20.48 0 36.864 16.384 36.864 36.864v72.704c-1.024 154.624-96.256 285.696-231.424 339.968zM365.568 651.776c0 80.896 65.536 146.432 146.432 146.432v0c80.896 0 146.432-65.536 146.432-146.432s-65.536-146.432-146.432-146.432c-80.896 1.024-146.432 66.56-146.432 146.432zM804.864 103.936h-585.728v36.864c0 161.792 131.072 292.864 292.864 292.864s292.864-131.072 292.864-292.864v-36.864z" />
<glyph unicode="&#xe938;" glyph-name="hide" d="M803.84 705.024l78.848 83.968-58.368 53.248-92.16-98.304c-68.608 31.744-143.36 47.104-221.184 47.104-327.68 0-512-301.056-512-356.352 1.024-38.912 84.992-158.72 219.136-239.616l-76.8-81.92 58.368-53.248 91.136 97.28c70.656-30.72 145.408-46.080 222.208-46.080 167.936 0 295.936 80.896 373.76 148.48s136.192 150.528 137.216 174.080c1.024 28.672-75.776 176.128-220.16 271.36zM512 572.928c17.408 0 34.816-4.096 50.176-11.264l-157.696-167.936c-9.216 17.408-14.336 36.864-14.336 57.344 0 67.584 54.272 121.856 121.856 121.856zM512 329.216c-17.408 0-34.816 4.096-50.176 11.264l157.696 167.936c9.216-17.408 14.336-36.864 14.336-57.344 0-67.584-54.272-121.856-121.856-121.856zM620.544 624.128c-32.768 21.504-69.632 31.744-108.544 31.744-112.64 0-204.8-92.16-204.8-204.8 0-43.008 13.312-84.992 38.912-119.808l-64.512-68.608c-111.616 63.488-178.176 151.552-189.44 174.080 15.36 36.864 164.864 267.264 419.84 267.264 54.272 0 107.52-9.216 156.672-28.672l-48.128-51.2zM403.456 278.016c32.768-21.504 69.632-31.744 108.544-31.744 112.64 0 204.8 92.16 204.8 204.8 0 43.008-13.312 84.992-38.912 119.808l64.512 68.608c117.76-70.656 179.2-177.152 189.44-202.752-19.456-34.816-176.128-236.544-419.84-236.544-52.224 0-104.448 9.216-154.624 27.648l46.080 50.176z" />
<glyph unicode="&#xe939;" glyph-name="show" d="M1021.952 456.192c-84.992 208.896-284.672 344.064-509.952 344.064s-424.96-135.168-509.952-344.064l-2.048-5.12 2.048-5.12c84.992-208.896 284.672-344.064 509.952-344.064s424.96 135.168 509.952 344.064l2.048 5.12-2.048 5.12zM918.528 451.072c-76.8-153.6-235.52-252.928-406.528-252.928s-329.728 99.328-406.528 252.928c76.8 153.6 235.52 252.928 406.528 252.928s329.728-99.328 406.528-252.928zM512 644.608c-106.496 0-193.536-87.040-193.536-193.536s87.040-193.536 193.536-193.536c106.496 0 193.536 87.040 193.536 193.536s-87.040 193.536-193.536 193.536zM608.256 451.072c0-53.248-43.008-96.256-96.256-96.256s-96.256 43.008-96.256 96.256c0 53.248 43.008 96.256 96.256 96.256s96.256-43.008 96.256-96.256z" />
<glyph unicode="&#xe93a;" glyph-name="wrong" d="M512 963.072c-282.624 0-512-229.376-512-512s229.376-512 512-512h1.024c282.624 0 510.976 229.376 510.976 512s-229.376 512-512 512zM716.8 287.232c9.216-9.216 9.216-24.576 0-34.816l-6.144-6.144c-9.216-9.216-24.576-9.216-34.816 0l-162.816 162.816-163.84-162.816c-9.216-9.216-24.576-9.216-34.816 0l-6.144 6.144c-9.216 9.216-10.24 23.552-1.024 33.792l1.024 1.024 163.84 162.816-163.84 162.816c-9.216 9.216-10.24 23.552-1.024 33.792l7.168 7.168c9.216 9.216 24.576 9.216 34.816 0l163.84-162.816 162.816 163.84c9.216 9.216 24.576 9.216 34.816 0l6.144-6.144c9.216-9.216 9.216-24.576 0-34.816l-162.816-163.84 162.816-162.816z" />
<glyph unicode="&#xe93b;" glyph-name="question" d="M512 963.072c-282.624 0-510.976-229.376-510.976-510.976 0-282.624 229.376-510.976 510.976-510.976 282.624 0 510.976 229.376 510.976 510.976s-228.352 510.976-510.976 510.976zM512 9.728c-243.712 0-441.344 197.632-441.344 441.344 0 244.736 197.632 442.368 441.344 442.368s441.344-197.632 441.344-441.344c0-244.736-197.632-442.368-441.344-442.368zM650.24 705.024c-33.792 28.672-76.8 43.008-131.072 46.080-61.44 0-109.568-18.432-143.36-54.272-26.624-26.624-41.984-60.416-48.128-101.376-2.048-19.456 12.288-36.864 32.768-36.864 17.408 0 32.768 12.288 34.816 30.72 3.072 25.6 11.264 48.128 25.6 63.488 19.456 27.648 51.2 40.96 94.208 40.96 35.84 0 63.488-9.216 83.968-28.672 18.432-18.432 28.672-44.032 28.672-76.8 0-23.552-8.192-44.032-25.6-65.536-6.144-6.144-15.36-16.384-28.672-28.672-86.016-82.944-96.256-129.024-96.256-155.648 0-12.288 10.24-23.552 23.552-23.552h23.552c12.288 0 23.552 10.24 23.552 23.552 1.024 23.552 14.336 41.984 50.176 94.208 36.864 31.744 60.416 53.248 68.608 62.464 20.48 26.624 32.768 58.368 32.768 95.232-2.048 48.128-17.408 87.040-49.152 114.688zM512 259.584c-12.288 0-23.552-3.072-32.768-12.288-9.216-8.192-12.288-19.456-12.288-32.768 0-14.336 3.072-24.576 12.288-33.792 9.216-8.192 19.456-12.288 32.768-12.288s23.552 5.12 32.768 12.288c9.216 8.192 14.336 19.456 14.336 33.792 0 12.288-5.12 24.576-12.288 32.768-10.24 9.216-22.528 12.288-34.816 12.288z" />
<glyph unicode="&#xe93c;" glyph-name="wechat" d="M1022.976 347.648c0 75.776-37.888 144.384-99.328 194.56-47.104 37.888-109.568 64.512-178.176 73.728-16.384 66.56-59.392 126.976-120.832 169.984-66.56 47.104-152.576 75.776-247.808 75.776-102.4 0-195.584-33.792-264.192-88.064-69.632-56.32-112.64-134.144-112.64-221.184 0-63.488 16.384-111.616 46.080-151.552 23.552-32.768 56.32-58.368 95.232-81.92l-22.528-80.896c-5.12-13.312-1.024-27.648 10.24-36.864s25.6-10.24 37.888-3.072v0l96.256 58.368c50.176-15.36 55.296-15.36 93.184-14.336h20.48c3.072 0 8.192 0 13.312 0 17.408-33.792 41.984-64.512 73.728-89.088 59.392-48.128 140.288-76.8 230.4-76.8h18.432c32.768 0 36.864 0 79.872 12.288l80.896-49.152c12.288-7.168 27.648-6.144 37.888 3.072 11.264 9.216 14.336 23.552 10.24 36.864l-18.432 65.536c32.768 20.48 59.392 43.008 79.872 70.656v0c25.6 33.792 39.936 75.776 39.936 132.096zM355.328 307.712c-30.72 0-32.768 0-88.064 16.384v0c-9.216 3.072-19.456 1.024-27.648-4.096l-36.864-22.528 8.192 27.648c4.096 15.36-3.072 31.744-18.432 38.912-39.936 23.552-72.704 47.104-94.208 75.776-20.48 28.672-32.768 64.512-32.768 112.64 0 66.56 33.792 125.952 88.064 169.984 56.32 46.080 135.168 73.728 223.232 73.728 80.896 0 154.624-24.576 209.92-63.488 43.008-30.72 74.752-69.632 90.112-114.688-5.12 0-10.24-1.024-15.36-1.024-2.048 0-5.12 0-7.168-1.024-3.072 0-6.144-1.024-8.192-1.024s-5.12-1.024-7.168-1.024c-3.072 0-6.144-1.024-8.192-1.024s-5.12-1.024-7.168-1.024c-3.072 0-5.12-1.024-8.192-2.048-2.048 0-4.096-1.024-7.168-1.024-3.072-1.024-5.12-1.024-8.192-2.048-2.048-1.024-4.096-1.024-6.144-2.048-3.072-1.024-5.12-1.024-8.192-2.048-2.048-1.024-4.096-1.024-6.144-2.048-3.072-1.024-5.12-2.048-8.192-3.072-2.048-1.024-4.096-1.024-6.144-2.048-3.072-1.024-5.12-2.048-8.192-3.072-2.048-1.024-4.096-1.024-6.144-2.048-3.072-1.024-5.12-2.048-8.192-3.072-2.048-1.024-4.096-2.048-6.144-2.048-3.072-1.024-5.12-2.048-8.192-4.096-2.048-1.024-4.096-2.048-5.12-3.072-3.072-1.024-5.12-3.072-8.192-4.096-2.048-1.024-3.072-2.048-5.12-3.072-3.072-1.024-5.12-3.072-8.192-4.096-2.048-1.024-3.072-2.048-5.12-3.072-3.072-2.048-5.12-3.072-8.192-5.12-1.024-1.024-3.072-2.048-4.096-3.072-3.072-2.048-5.12-4.096-8.192-6.144-1.024-1.024-2.048-1.024-3.072-2.048-4.096-3.072-7.168-5.12-11.264-8.192s-7.168-6.144-11.264-9.216c-54.272-48.128-88.064-113.664-88.064-184.32 0 0 0-1.024 0-1.024 0-6.144 0-11.264 1.024-17.408 0-1.024 0-2.048 0-3.072 1.024-6.144 1.024-12.288 2.048-17.408l-10.24 1.024zM930.816 253.44c-18.432-24.576-45.056-44.032-79.872-64.512-14.336-7.168-22.528-23.552-18.432-38.912v0l3.072-13.312-20.48 14.336c-8.192 5.12-18.432 7.168-27.648 4.096v0c-47.104-14.336-48.128-14.336-73.728-13.312-11.264 0-13.312 0-18.432 0-73.728 0-141.312 23.552-188.416 62.464-31.744 25.6-54.272 56.32-65.536 92.16 0 1.024 0 1.024-1.024 2.048-1.024 3.072-2.048 6.144-2.048 8.192s-1.024 3.072-1.024 5.12c-1.024 4.096-2.048 7.168-2.048 11.264 0 2.048-1.024 4.096-1.024 7.168 0 2.048 0 3.072 0 5.12 0 4.096-1.024 8.192-1.024 13.312 0 3.072 0 7.168 0 10.24 3.072 51.2 30.72 98.304 73.728 133.12 48.128 38.912 114.688 62.464 188.416 62.464 0 0 0 0 0 0 73.728 0 140.288-23.552 188.416-62.464 46.080-36.864 74.752-88.064 74.752-143.36-1.024-41.984-10.24-71.68-27.648-95.232zM637.952 431.616v0 0zM637.952 431.616c-13.312 0-24.576-4.096-33.792-11.264-8.192-7.168-14.336-17.408-14.336-28.672s5.12-20.48 14.336-28.672c8.192-7.168 20.48-11.264 33.792-11.264s24.576 4.096 33.792 11.264c8.192 7.168 14.336 17.408 14.336 28.672s-5.12 20.48-14.336 28.672c-8.192 6.144-20.48 11.264-33.792 11.264zM842.752 436.736c-13.312 0-24.576-4.096-33.792-11.264-8.192-7.168-14.336-17.408-14.336-28.672s5.12-20.48 14.336-28.672c8.192-7.168 20.48-11.264 33.792-11.264s24.576 4.096 33.792 11.264c8.192 7.168 14.336 17.408 14.336 28.672s-5.12 20.48-14.336 28.672c-9.216 7.168-21.504 11.264-33.792 11.264zM447.488 601.6c10.24-8.192 23.552-13.312 38.912-13.312s28.672 5.12 38.912 13.312c10.24 8.192 16.384 19.456 16.384 32.768 0 12.288-6.144 24.576-16.384 32.768s-23.552 13.312-38.912 13.312c-15.36 0-28.672-5.12-38.912-13.312v0c-10.24-8.192-16.384-19.456-16.384-32.768s6.144-24.576 16.384-32.768zM248.832 686.592c-15.36 0-28.672-5.12-38.912-13.312s-16.384-19.456-16.384-32.768c0-12.288 6.144-24.576 16.384-32.768s23.552-13.312 38.912-13.312 28.672 5.12 38.912 13.312c10.24 8.192 16.384 19.456 16.384 32.768 0 12.288-6.144 24.576-16.384 32.768s-23.552 13.312-38.912 13.312z" />
</font>
</defs>
</svg>
